<?xml version="1.0" encoding="UTF-8"?>
<svg version="1.1" xmlns="http://www.w3.org/2000/svg" width="233" height="183">
<path d="M0 0 C6.60424031 6.29134906 11.11166531 13.53832148 14.05859375 22.13671875 C15.78586656 26.70216597 17.82049436 28.69657291 22.12890625 30.9296875 C28.63582428 33.76254725 34.08750718 33.86963431 41.0859375 33.78125 C46.19458061 33.8521139 49.56791248 34.49853155 53.62109375 37.82421875 C55.92804952 42.25357383 56.11566067 45.93814918 55.18359375 50.82421875 C51.6692772 59.26681515 44.41987206 64.54244979 36.234375 68.109375 C33.5674374 69.10280035 30.91125685 70.01376294 28.18359375 70.82421875 C27.57515625 71.02015625 26.96671875 71.21609375 26.33984375 71.41796875 C23.09108238 72.03005423 19.85130189 71.96814236 16.55859375 71.94921875 C15.87796875 71.95308594 15.19734375 71.95695312 14.49609375 71.9609375 C9.43703497 71.95093936 9.43703497 71.95093936 7.18359375 70.82421875 C10.38670664 75.91151569 13.77638942 80.55353539 17.74609375 85.07421875 C22.52675118 90.79004694 25.00920833 96.74775906 27.18359375 103.82421875 C27.3846875 104.45199219 27.58578125 105.07976562 27.79296875 105.7265625 C30.16430197 118.46062187 27.81824592 130.57832756 20.9140625 141.4375 C14.23205815 150.6535376 5.37141282 157.30397945 -5.81640625 159.82421875 C-12.27582544 160.76471559 -18.65993789 160.97269459 -25.17871094 160.96948242 C-26.6709166 160.97452034 -26.6709166 160.97452034 -28.19326782 160.97966003 C-31.45828526 160.98910223 -34.72325104 160.99110978 -37.98828125 160.9921875 C-40.27598084 160.99540486 -42.56368023 160.99876929 -44.85137939 161.00227356 C-49.63920569 161.00824809 -54.42701399 161.0101152 -59.21484375 161.00952148 C-65.32169697 161.00941998 -71.42843361 161.02306732 -77.53525925 161.04029369 C-82.25901815 161.05146342 -86.98274932 161.05343916 -91.70652008 161.05291176 C-93.95655977 161.05408457 -96.20660034 161.05846667 -98.45662689 161.06624413 C-133.39378411 161.17570139 -133.39378411 161.17570139 -146.25390625 149.4765625 C-153.99179713 141.29374289 -156.46270119 131.10305333 -156.1640625 120.06640625 C-154.97818421 109.00709188 -149.26562279 100.06718053 -140.734375 93.13671875 C-136.25974718 90.07465165 -131.53983289 88.09164702 -126.19140625 87.26171875 C-121.44290014 85.23920689 -120.11617374 81.99508217 -117.5546875 77.64453125 C-111.39090481 67.64396697 -101.51833955 62.13756645 -90.359375 59.26953125 C-87.79040995 58.8196664 -85.41876223 58.74012107 -82.81640625 58.82421875 C-83.13867188 57.7053125 -83.4609375 56.58640625 -83.79296875 55.43359375 C-87.36802793 41.0447715 -85.21374195 26.37022742 -78.00390625 13.57421875 C-69.74964451 0.70909758 -59.40719739 -6.59339086 -44.81640625 -11.17578125 C-28.70870115 -14.66578402 -12.90194735 -9.96724643 0 0 Z " fill="#364959" transform="translate(169.81640625,16.17578125)"/>
<path d="M0 0 C4.44743495 3.71537929 9.19863058 8.3141934 10.90625 13.99609375 C12.24066721 16.23791102 12.24066721 16.23791102 15.84765625 16.4296875 C17.3353407 16.52540218 18.82371456 16.61079109 20.3125 16.6875 C27.67057944 17.31291752 32.73963794 18.59026145 38.25 23.8125 C38.83136719 24.36292969 39.41273438 24.91335937 40.01171875 25.48046875 C46.3858095 32.22496671 48.64812809 40.97733643 48.52734375 50.08984375 C47.74545845 57.76553467 44.08207607 64.77512441 38.25 69.8125 C32.48285102 73.67398236 27.47124293 75.95494386 20.484375 75.91015625 C19.28119629 75.90640991 19.28119629 75.90640991 18.05371094 75.90258789 C17.04598633 75.89348389 16.03826172 75.88437988 15 75.875 C11.7825 75.854375 8.565 75.83375 5.25 75.8125 C5.91 68.8825 6.57 61.9525 7.25 54.8125 C13.19 54.3175 13.19 54.3175 19.25 53.8125 C18.033125 52.348125 16.81625 50.88375 15.5625 49.375 C12.57171655 45.74231549 9.6744257 42.07041464 6.86328125 38.296875 C6.28602295 37.52529053 5.70876465 36.75370605 5.11401367 35.95874023 C3.96156123 34.41215974 2.81706402 32.859617 1.6809082 31.30102539 C0.88366333 30.23356079 0.88366333 30.23356079 0.0703125 29.14453125 C-0.40132324 28.50233643 -0.87295898 27.8601416 -1.35888672 27.19848633 C-2.77692062 25.45959992 -2.77692062 25.45959992 -5.75 25.8125 C-7.36627749 27.44740929 -7.36627749 27.44740929 -8.859375 29.65234375 C-9.44976562 30.46896484 -10.04015625 31.28558594 -10.6484375 32.12695312 C-11.25945312 32.99255859 -11.87046875 33.85816406 -12.5 34.75 C-13.70189221 36.42666564 -14.90501533 38.10244962 -16.109375 39.77734375 C-16.70298828 40.6060498 -17.29660156 41.43475586 -17.90820312 42.28857422 C-20.76448133 46.20270519 -23.75327907 50.00512764 -26.75 53.8125 C-22.79 54.1425 -18.83 54.4725 -14.75 54.8125 C-14.0240866 61.34572063 -15.52364526 65.00512442 -18.8515625 70.61328125 C-22.15529882 74.44044904 -25.6087176 75.6925062 -30.59301758 76.21655273 C-32.02664794 76.24285951 -33.4606712 76.25187372 -34.89453125 76.24609375 C-35.66375412 76.2513356 -36.43297699 76.25657745 -37.22550964 76.26197815 C-38.84669799 76.26837489 -40.46793289 76.26709187 -42.08911133 76.25854492 C-44.54529332 76.25005944 -46.99912682 76.2787857 -49.45507812 76.31054688 C-60.53637204 76.36067635 -68.78312894 75.21311269 -77.24609375 67.45703125 C-83.51389651 60.60314824 -84.17881971 53.31322003 -84.0859375 44.359375 C-83.41067554 37.22986501 -80.02266317 32.76188557 -74.9375 27.9375 C-68.25796786 22.54634203 -62.21527362 21.2834204 -53.75 21.8125 C-53.63269531 21.0803125 -53.51539062 20.348125 -53.39453125 19.59375 C-51.14832784 9.90104196 -44.3396606 2.71075748 -36.32421875 -2.671875 C-25.23170629 -9.20282316 -10.16794875 -7.44742735 0 0 Z " fill="#E0ECF4" transform="translate(107.75,91.1875)"/>
<path d="M0 0 C0.02505615 0.69561035 0.0501123 1.3912207 0.07592773 2.10791016 C0.19245974 5.28043455 0.31492568 8.45270355 0.4375 11.625 C0.47681641 12.71941406 0.51613281 13.81382813 0.55664062 14.94140625 C0.59853516 16.00488281 0.64042969 17.06835938 0.68359375 18.1640625 C0.72025146 19.13811035 0.75690918 20.1121582 0.79467773 21.11572266 C0.95370454 24.07289528 0.95370454 24.07289528 1.58227539 27.23974609 C2 30 2 30 1 32 C-1.1347777 32.34738385 -3.28494515 32.60164694 -5.4375 32.8125 C-15.85522515 34.18742819 -23.83504568 38.26493103 -31 46 C-33.80106193 49.69663956 -36.27116191 53.50522728 -38.3046875 57.67578125 C-40.54447807 60.74646187 -42.12481868 60.89918122 -45.8125 61.5625 C-50.85202301 62.62281077 -53.94555231 63.90581624 -58 67 C-58.66 67 -59.32 67 -60 67 C-59.4740625 68.3303125 -59.4740625 68.3303125 -58.9375 69.6875 C-57.92509946 73.26464856 -57.84365733 74.530972 -59 78 C-59.31839844 78.52722656 -59.63679688 79.05445312 -59.96484375 79.59765625 C-64.17432522 86.65340634 -64.12592448 94.52627482 -62.4921875 102.46875 C-59.90052193 110.21395745 -55.02104074 114.48947963 -48 118 C-43.64672468 120.14897567 -39.61635085 120.30663217 -34.84765625 120.30078125 C-34.06990341 120.30506638 -33.29215057 120.3093515 -32.49082947 120.31376648 C-30.85107392 120.3194918 -29.21129298 120.32002332 -27.5715332 120.31567383 C-25.07393732 120.31251447 -22.57752774 120.33599204 -20.08007812 120.36132812 C-18.48177232 120.3636015 -16.88346335 120.36430443 -15.28515625 120.36328125 C-14.54435318 120.372491 -13.80355011 120.38170074 -13.04029846 120.39118958 C-8.28510113 120.34912624 -5.0426164 119.50391749 -1 117 C3.20137397 111.94038811 4.64851804 106.44383584 5 100 C0.71 100 -3.58 100 -8 100 C-3.87498198 93.67371089 0.46825512 87.63110878 5.125 81.6875 C5.73214844 80.90310547 6.33929688 80.11871094 6.96484375 79.31054688 C9.80554544 75.6683836 12.60394736 72.15106376 16 69 C24.9165672 78.54449447 32.45011791 89.36655801 40 100 C35.71 100 31.42 100 27 100 C27.04125 101.98 27.0825 103.96 27.125 106 C27.23774092 111.41156402 26.44070476 115.82707582 25 121 C37.03796592 120.79673886 47.17500112 120.62386297 57.75 114.375 C61.86797712 110.02824637 65.10548167 104.68355498 67 99 C67.99 99.33 68.98 99.66 70 100 C71.1875 103.0625 71.1875 103.0625 72 106 C73.7899856 99.6753842 74.54240047 93.5508985 75 87 C75.33 87 75.66 87 76 87 C77.13556066 99.86968747 74.77678375 108.50633996 66.765625 118.8984375 C66.18296875 119.59195313 65.6003125 120.28546875 65 121 C77.08390204 118.47943148 87.39584678 115.98489195 94.71484375 105.1796875 C100.20227337 95.87274 101.72777211 86.72896873 99.33984375 76.046875 C97.02807573 69.04151736 93.16284739 63.04548343 89 57 C90.32 57 91.64 57 93 57 C93.33 58.32 93.66 59.64 94 61 C95.98 60.01 95.98 60.01 98 59 C97.67 58.01 97.34 57.02 97 56 C99.3434029 56.37732759 100.67033455 56.65883459 102.34375 58.390625 C109.72512531 70.26067449 111.76556916 83.21689578 109.52734375 96.88671875 C106.48553187 108.48931856 98.9663625 118.19679861 89.0625 124.8125 C78.88423651 130.716688 68.14011655 131.15093156 56.63769531 131.14526367 C55.14548965 131.15030159 55.14548965 131.15030159 53.62313843 131.15544128 C50.35812099 131.16488348 47.09315521 131.16689103 43.828125 131.16796875 C41.54042541 131.17118611 39.25272602 131.17455054 36.96502686 131.17805481 C32.17720056 131.18402934 27.38939226 131.18589645 22.6015625 131.18530273 C16.49470928 131.18520123 10.38797264 131.19884857 4.281147 131.21607494 C-0.4426119 131.22724467 -5.16634307 131.22922041 -9.89011383 131.22869301 C-12.14015352 131.22986582 -14.39019409 131.23424792 -16.64022064 131.24202538 C-51.57737786 131.35148264 -51.57737786 131.35148264 -64.4375 119.65234375 C-72.17539088 111.46952414 -74.64629494 101.27883458 -74.34765625 90.2421875 C-73.16177796 79.18287313 -67.44921654 70.24296178 -58.91796875 63.3125 C-54.44334093 60.2504329 -49.72342664 58.26742827 -44.375 57.4375 C-39.62649389 55.41498814 -38.29976749 52.17086342 -35.73828125 47.8203125 C-29.57449856 37.81974822 -19.7019333 32.3133477 -8.54296875 29.4453125 C-5.9740037 28.99544765 -3.60235598 28.91590232 -1 29 C-1.32742187 27.8965625 -1.65484375 26.793125 -1.9921875 25.65625 C-3.26012023 20.58451908 -3.22325309 15.69985606 -3.125 10.5 C-3.11597656 9.5821875 -3.10695313 8.664375 -3.09765625 7.71875 C-3.07432432 5.47888444 -3.04159235 3.23958817 -3 1 C-1 0 -1 0 0 0 Z " fill="#374B5B" transform="translate(88,46)"/>
<path d="M0 0 C9.50833742 1.35544384 19.44726594 4.56176134 26 12 C30.32562511 17.77946591 33.65491334 22.61675048 34 30 C33.1796875 33.5703125 33.1796875 33.5703125 31.875 37.125 C31.45992187 38.30320313 31.04484375 39.48140625 30.6171875 40.6953125 C28.86892801 44.26784275 26.93431085 46.34980497 24 49 C20.71565248 52.55804315 19 55.06358758 19 60 C20.6897011 63.19165763 22.02675369 65.39887728 25.125 67.3125 C27.77149245 69.6943432 27.92097557 72.11958163 28.5078125 75.55078125 C29.09343587 78.46495469 30.04280593 81.18845339 31 84 C24.43533629 84.22885708 17.87170562 84.38606959 11.30395508 84.49438477 C9.07179327 84.53954926 6.83989632 84.60089802 4.60864258 84.67895508 C1.39337854 84.78859078 -1.81835947 84.83926238 -5.03515625 84.87890625 C-6.02709488 84.92535782 -7.01903351 84.97180939 -8.04103088 85.01966858 C-12.28332249 85.02273502 -14.92072885 84.99709212 -18.12179565 82.0397644 C-19.98217773 79.62866211 -19.98217773 79.62866211 -21.53684998 77.22471619 C-24.21614289 73.15085758 -27.97370893 70.68419405 -32 68 C-30.27130928 61.95469696 -27.39044999 56.52334646 -24.5625 50.9375 C-24.07201172 49.95716797 -23.58152344 48.97683594 -23.07617188 47.96679688 C-17.31845419 36.52129329 -17.31845419 36.52129329 -13.5625 32.1875 C-9.64454113 27.57327736 -7.24920813 22.50533247 -5.875 16.625 C-5 13 -5 13 -3 11 C-2.39566334 9.3339159 -1.86059337 7.64198177 -1.375 5.9375 C-1.11460937 5.03902344 -0.85421875 4.14054687 -0.5859375 3.21484375 C0.04262533 1.22071595 0.04262533 1.22071595 0 0 Z " fill="#F2B912" transform="translate(140,14)"/>
<path d="M0 0 C0.66 0 1.32 0 2 0 C2.25652344 0.79664063 2.51304687 1.59328125 2.77734375 2.4140625 C5.22304065 9.18296098 7.36309188 13.21971435 13.62109375 16.9140625 C20.5779561 20.08977307 26.66238041 20.34474012 34.1875 20.390625 C40.43028735 20.56786502 40.43028735 20.56786502 43.5234375 22.9140625 C46.22535958 26.73106353 46.22243572 29.00833467 45.609375 33.5625 C43.89749149 40.41003403 39.16908046 44.19025049 33.375 47.8125 C22.25530946 53.83280217 10.40546994 55.68226377 -2 53 C-1.69787179 57.83405138 0.7839716 60.614158 3.72265625 64.23046875 C5 66 5 66 5 68 C6.65 68.33 8.3 68.66 10 69 C10 72.51716303 9.17554415 73.37121748 7 76 C4 75 4 75 2 72 C3.47272734 75.07998265 5.18127812 77.92527902 7 80.8125 C12.07436783 89.33991325 12.76757786 97.1682307 12 107 C10.984375 110.43359375 10.984375 110.43359375 10 113 C5.69235185 111.43358249 1.93828536 109.31663844 -2 107 C-2 106.34 -2 105.68 -2 105 C-3.051875 104.9071875 -3.051875 104.9071875 -4.125 104.8125 C-8.05474567 103.7019197 -10.52411953 102.19774843 -13 99 C-14.30247408 96.15727047 -15.46650988 93.28334267 -16.61572266 90.3762207 C-20.42543556 81.08836975 -27.2160514 74.68689817 -36 70 C-41.2243726 68.04086028 -46.47574636 67.47601279 -52 67 C-52 66.67 -52 66.34 -52 66 C-36.82 66 -21.64 66 -6 66 C-7.32 63.36 -8.64 60.72 -10 58 C-10.79296875 55.42578125 -10.79296875 55.42578125 -11.1875 53.3125 C-11.33316406 52.56742188 -11.47882813 51.82234375 -11.62890625 51.0546875 C-11.75136719 50.37664062 -11.87382812 49.69859375 -12 49 C-12.20625 47.989375 -12.4125 46.97875 -12.625 45.9375 C-12.74875 45.298125 -12.8725 44.65875 -13 44 C-13.66 44 -14.32 44 -15 44 C-14.67 42.02 -14.34 40.04 -14 38 C-13.01 38.495 -13.01 38.495 -12 39 C-11.375 42.0625 -11.375 42.0625 -11 45 C9.10470572 48.62270931 9.10470572 48.62270931 28.21484375 43.7109375 C28.78332031 43.27007812 29.35179687 42.82921875 29.9375 42.375 C30.948125 41.59125 31.95875 40.8075 33 40 C30.05644109 40.89672986 30.05644109 40.89672986 27.6796875 42.19140625 C17.60212805 47.11790119 6.40445096 47.89766318 -4.4375 44.75 C-8.13053104 42.93587949 -8.54324045 42.54307347 -10 39 C-9.278125 38.34 -8.55625 37.68 -7.8125 37 C-3.02083819 32.19472551 0.20145171 26.54017561 2 20 C5.37696299 20.68483865 8.13565084 21.98022665 11.1875 23.5625 C13.95373509 25.23495767 13.95373509 25.23495767 17 26 C12.7145625 21.00032292 7.35466689 19.63546669 1 19 C0.505 21.475 0.505 21.475 0 24 C-0.99 24.33 -1.98 24.66 -3 25 C-3 24.34 -3 23.68 -3 23 C-3.66 23 -4.32 23 -5 23 C-4.34 20.36 -3.68 17.72 -3 15 C-2.34 15 -1.68 15 -1 15 C-1.01160156 14.00097656 -1.02320313 13.00195312 -1.03515625 11.97265625 C-1.04417969 10.68230469 -1.05320313 9.39195313 -1.0625 8.0625 C-1.07410156 6.77472656 -1.08570313 5.48695312 -1.09765625 4.16015625 C-1 1 -1 1 0 0 Z " fill="#3A4C5B" transform="translate(177,32)"/>
<path d="M0 0 C1.63001953 0.01353516 1.63001953 0.01353516 3.29296875 0.02734375 C4.12441406 0.03894531 4.95585937 0.05054688 5.8125 0.0625 C7.00769916 3.64809749 6.55780914 4.25972444 5 7.5625 C4.64292969 8.3359375 4.28585938 9.109375 3.91796875 9.90625 C2.8125 12.0625 2.8125 12.0625 0.8125 15.0625 C0.52375 16.114375 0.235 17.16625 -0.0625 18.25 C-1.74125901 23.93912775 -3.83627143 28.78529001 -7.9765625 33.09375 C-12.00672692 37.70386491 -14.30245396 43.02479955 -16.8125 48.5625 C-19.72412486 54.87910838 -22.61402346 61.08992889 -26.1875 67.0625 C-29.47903065 66.51391156 -32.29034608 65.74584633 -35.1875 64.0625 C-37.19377306 60.90747382 -38.23255524 57.66059544 -39.1875 54.0625 C-39.37570313 53.44117188 -39.56390625 52.81984375 -39.7578125 52.1796875 C-42.12672668 40.50740129 -39.87989466 29.53388567 -33.578125 19.5 C-25.50667842 8.54060465 -14.07586853 -0.15135343 0 0 Z " fill="#4680DD" transform="translate(134.1875,13.9375)"/>
<path d="M0 0 C6.60424031 6.29134906 11.11166531 13.53832148 14.05859375 22.13671875 C15.78586656 26.70216597 17.82049436 28.69657291 22.12890625 30.9296875 C28.63582428 33.76254725 34.08750718 33.86963431 41.0859375 33.78125 C46.19458061 33.8521139 49.56791248 34.49853155 53.62109375 37.82421875 C55.92804952 42.25357383 56.11566067 45.93814918 55.18359375 50.82421875 C51.6692772 59.26681515 44.41987206 64.54244979 36.234375 68.109375 C33.5674374 69.10280035 30.91125685 70.01376294 28.18359375 70.82421875 C27.57515625 71.02015625 26.96671875 71.21609375 26.33984375 71.41796875 C23.09108238 72.03005423 19.85130189 71.96814236 16.55859375 71.94921875 C15.87796875 71.95308594 15.19734375 71.95695312 14.49609375 71.9609375 C9.43703497 71.95093936 9.43703497 71.95093936 7.18359375 70.82421875 C8.13904741 72.28444038 9.09806053 73.74233343 10.05859375 75.19921875 C10.59226562 76.01132813 11.1259375 76.8234375 11.67578125 77.66015625 C13.1422443 79.90015971 13.1422443 79.90015971 15.18359375 81.82421875 C14.68859375 83.30921875 14.68859375 83.30921875 14.18359375 84.82421875 C10.1124086 81.10199233 6.33434874 76.97578904 4.18359375 71.82421875 C4.55078125 69.578125 4.55078125 69.578125 5.18359375 67.82421875 C5.94671875 67.98921875 6.70984375 68.15421875 7.49609375 68.32421875 C21.83659166 70.26869304 34.40632805 67.42519158 46.18359375 58.82421875 C50.53235973 54.79138876 51.76239297 50.76195879 52.23828125 44.9375 C52.18018323 42.69242649 51.99747558 40.92293651 51.18359375 38.82421875 C48.49082612 37.92662954 46.85581014 37.69172163 44.0859375 37.6484375 C33.28093468 37.36446896 25.12331448 36.56404291 15.80859375 30.69921875 C12.22157679 26.77058113 9.18359375 21.30784879 9.18359375 15.82421875 C8.52359375 16.15421875 7.86359375 16.48421875 7.18359375 16.82421875 C6.71358342 20.09977483 6.71358342 20.09977483 6.55859375 23.88671875 C6.48382813 25.17707031 6.4090625 26.46742187 6.33203125 27.796875 C6.25855469 29.29541016 6.25855469 29.29541016 6.18359375 30.82421875 C5.52359375 30.82421875 4.86359375 30.82421875 4.18359375 30.82421875 C3.52359375 33.46421875 2.86359375 36.10421875 2.18359375 38.82421875 C2.84359375 38.82421875 3.50359375 38.82421875 4.18359375 38.82421875 C4.18359375 39.48421875 4.18359375 40.14421875 4.18359375 40.82421875 C6.43139125 38.7718819 7.18581795 37.81754614 8.18359375 34.82421875 C13.7868459 34.24054665 16.54360415 35.24519879 21.09375 38.53515625 C26.3112912 41.75345269 31.60050823 42.19063999 37.55859375 42.44921875 C38.29464844 42.48789062 39.03070313 42.5265625 39.7890625 42.56640625 C41.58686781 42.65979873 43.38519483 42.74305585 45.18359375 42.82421875 C45.18359375 43.15421875 45.18359375 43.48421875 45.18359375 43.82421875 C24.8458387 44.56903989 24.8458387 44.56903989 17.18359375 39.82421875 C15.66793315 39.06381953 14.14716914 38.31349403 12.62109375 37.57421875 C11.48671875 36.99671875 10.35234375 36.41921875 9.18359375 35.82421875 C9.14234375 36.60796875 9.10109375 37.39171875 9.05859375 38.19921875 C7.45237692 44.8535456 3.94211413 50.98936896 -1.81640625 54.82421875 C-1.48640625 55.81421875 -1.15640625 56.80421875 -0.81640625 57.82421875 C8.08982736 62.11829567 19.33535067 62.52575499 28.80859375 59.76953125 C31.68981747 58.57608319 34.43302779 57.29059478 37.18359375 55.82421875 C38.51647875 55.15665618 39.84963911 54.48964135 41.18359375 53.82421875 C39.99329615 57.39511156 39.00939436 57.92244947 35.93359375 59.94921875 C34.78117187 60.72652344 34.78117187 60.72652344 33.60546875 61.51953125 C23.13194964 67.16171735 7.47125402 63.6174357 -3.81640625 61.82421875 C-4.80640625 58.35921875 -4.80640625 58.35921875 -5.81640625 54.82421875 C-6.47640625 56.47421875 -7.13640625 58.12421875 -7.81640625 59.82421875 C-7.15640625 59.82421875 -6.49640625 59.82421875 -5.81640625 59.82421875 C-5.15640625 61.80421875 -4.49640625 63.78421875 -3.81640625 65.82421875 C-8.04245077 64.31491713 -9.78577391 61.73506622 -11.81640625 57.82421875 C-11.90018112 53.80302521 -10.80515307 51.52535312 -8.37890625 48.44921875 C-7.53328125 47.58296875 -6.68765625 46.71671875 -5.81640625 45.82421875 C-5.15640625 45.82421875 -4.49640625 45.82421875 -3.81640625 45.82421875 C-1.96578736 42.32281305 -0.52898525 38.71450647 0.87109375 35.01171875 C1.32871094 33.82964844 1.78632813 32.64757813 2.2578125 31.4296875 C3.53945427 26.4383147 3.25494496 22.78588953 0.7734375 18.2421875 C-0.04447266 17.13810547 -0.04447266 17.13810547 -0.87890625 16.01171875 C-3.81640625 11.99598346 -3.81640625 11.99598346 -3.81640625 9.82421875 C-4.39261719 9.55480469 -4.96882813 9.28539063 -5.5625 9.0078125 C-7.85098692 7.8060594 -9.79766773 6.41555377 -11.87890625 4.88671875 C-16.21885127 1.92864677 -20.33472618 0.59792543 -25.43359375 -0.53515625 C-27.81640625 -1.17578125 -27.81640625 -1.17578125 -30.81640625 -3.17578125 C-37.93407898 -4.1813974 -44.13766848 -2.43717843 -50.81640625 -0.17578125 C-52.14619667 0.17141659 -53.47853227 0.50960455 -54.81640625 0.82421875 C-54.15640625 -0.16578125 -53.49640625 -1.15578125 -52.81640625 -2.17578125 C-53.14640625 -2.83578125 -53.47640625 -3.49578125 -53.81640625 -4.17578125 C-55.25739236 -3.41148464 -56.69406679 -2.6390557 -58.12890625 -1.86328125 C-58.92941406 -1.43402344 -59.72992188 -1.00476562 -60.5546875 -0.5625 C-62.83891006 0.71705721 -62.83891006 0.71705721 -64.484375 2.4921875 C-64.92394531 2.93175781 -65.36351563 3.37132812 -65.81640625 3.82421875 C-66.47640625 3.82421875 -67.13640625 3.82421875 -67.81640625 3.82421875 C-68.08839844 4.41074219 -68.36039063 4.99726563 -68.640625 5.6015625 C-69.79359761 7.78110208 -71.07082914 9.48331584 -72.62890625 11.38671875 C-76.27343483 16.12371044 -78.53420298 21.33077371 -80.81640625 26.82421875 C-81.14640625 26.82421875 -81.47640625 26.82421875 -81.81640625 26.82421875 C-82.32430521 18.15184395 -77.49000964 11.52301546 -72.06640625 5.07421875 C-52.21878795 -15.93649249 -22.48883613 -17.37348366 0 0 Z " fill="#374959" transform="translate(169.81640625,16.17578125)"/>
<path d="M0 0 C6.53798168 2.71087045 11.47358582 7.0037055 14.6875 13.3125 C17.98302302 17.14243216 21.17141408 16.98087417 26.0390625 17.59375 C35.42607158 18.88167737 42.93239611 25.19845568 48.8125 32.3125 C52.24144321 36.95353477 56 43.05450839 56 49 C56.598125 49.268125 57.19625 49.53625 57.8125 49.8125 C60 51 60 51 61.5 52.5625 C63.27460185 54.26316011 64.61006256 54.58794182 67 55 C67 55.66 67 56.32 67 57 C67.58265625 57.11214844 68.1653125 57.22429687 68.765625 57.33984375 C71.20310657 58.06000876 72.7250586 59.04379395 74.75 60.5625 C75.36359375 61.01753906 75.9771875 61.47257812 76.609375 61.94140625 C77.29773438 62.46541016 77.29773438 62.46541016 78 63 C76.68470676 69.41205455 72.73917165 73.72607149 68 78 C61.00565562 82.51740807 53.39929745 85.40972183 45 85 C46.91837271 81.00646451 49.2349458 77.29997517 51.5625 73.53515625 C53.87797714 69.45161097 55 66.74831459 55 62 C54.81824219 62.84884766 54.81824219 62.84884766 54.6328125 63.71484375 C54.46523437 64.44832031 54.29765625 65.18179688 54.125 65.9375 C53.96257812 66.66839844 53.80015625 67.39929688 53.6328125 68.15234375 C53 70 53 70 51 71 C50.71125 69.88625 50.4225 68.7725 50.125 67.625 C49.30758671 63.99708908 49.30758671 63.99708908 47 62 C46.91015625 59.96875 46.91015625 59.96875 47.0625 57.5 C47.20886845 48.26548124 44.44803149 40.6624893 38 34 C32.53286782 28.64006649 27.7240999 27.72297181 20.375 27.3125 C12.89314014 26.84730246 12.89314014 26.84730246 9.48828125 23.6171875 C7.76262591 20.80972219 6.3974024 17.98030069 5 15 C3.70935119 13.30006436 2.38635301 11.62283113 1 10 C2.98 10.495 2.98 10.495 5 11 C5 9.02 5 7.04 5 5 C4.34 5 3.68 5 3 5 C1.375 3.625 1.375 3.625 0 2 C0 1.34 0 0.68 0 0 Z " fill="#3C4957" transform="translate(108,82)"/>
<path d="M0 0 C0.69222656 0.77859375 1.38445312 1.5571875 2.09765625 2.359375 C9.16329272 10.95613349 13.12725668 18.66974212 13.1875 29.875 C13.20167969 31.06867188 13.21585937 32.26234375 13.23046875 33.4921875 C13.00004992 36.99924022 12.26279461 39.73570089 11 43 C6.69235185 41.43358249 2.93828536 39.31663844 -1 37 C-1 36.34 -1 35.68 -1 35 C-2.051875 34.9071875 -2.051875 34.9071875 -3.125 34.8125 C-7.05474567 33.7019197 -9.52411953 32.19774843 -12 29 C-13.30247408 26.15727047 -14.46650988 23.28334267 -15.61572266 20.3762207 C-19.42543556 11.08836975 -26.2160514 4.68689817 -35 0 C-40.2243726 -1.95913972 -45.47574636 -2.52398721 -51 -3 C-51 -3.33 -51 -3.66 -51 -4 C-44.5414529 -4.27003877 -38.08236719 -4.49986151 -31.62133789 -4.7019043 C-29.42406949 -4.77534653 -27.22708749 -4.85795765 -25.03051758 -4.94995117 C-21.87091299 -5.08067865 -18.71174195 -5.17827981 -15.55078125 -5.26953125 C-14.08020012 -5.34105156 -14.08020012 -5.34105156 -12.57991028 -5.41401672 C-6.5715424 -5.54715186 -3.81301367 -5.08732322 0 0 Z " fill="#DF4935" transform="translate(176,102)"/>
<path d="M0 0 C0.02505615 0.69561035 0.0501123 1.3912207 0.07592773 2.10791016 C0.19245974 5.28043455 0.31492568 8.45270355 0.4375 11.625 C0.47681641 12.71941406 0.51613281 13.81382813 0.55664062 14.94140625 C0.59853516 16.00488281 0.64042969 17.06835938 0.68359375 18.1640625 C0.72025146 19.13811035 0.75690918 20.1121582 0.79467773 21.11572266 C0.95370454 24.07289528 0.95370454 24.07289528 1.58227539 27.23974609 C2 30 2 30 1 32 C-1.1347777 32.34738385 -3.28494515 32.60164694 -5.4375 32.8125 C-15.85522515 34.18742819 -23.83504568 38.26493103 -31 46 C-33.80106193 49.69663956 -36.27116191 53.50522728 -38.3046875 57.67578125 C-40.54447807 60.74646187 -42.12481868 60.89918122 -45.8125 61.5625 C-50.85202301 62.62281077 -53.94555231 63.90581624 -58 67 C-58.66 67 -59.32 67 -60 67 C-59.4740625 68.3303125 -59.4740625 68.3303125 -58.9375 69.6875 C-57.53371634 74.6475356 -58.61352271 77.34575839 -60.9375 81.75 C-63.17754185 86.01829792 -64.16901081 90.27648251 -65 95 C-65.33 95 -65.66 95 -66 95 C-66 93.02 -66 91.04 -66 89 C-67.98 89.99 -67.98 89.99 -70 91 C-69.835 91.61875 -69.67 92.2375 -69.5 92.875 C-69.04847872 95.69700798 -69.06089488 97.97916462 -69.1875 100.8125 C-69.24972543 107.79211902 -66.26815598 113.32597052 -61.6875 118.55078125 C-55.49654661 123.86754909 -48.19491068 127.11236208 -40.068573 127.14044189 C-39.07624161 127.14615204 -38.08391022 127.15186218 -37.06150818 127.15774536 C-35.97886185 127.15886322 -34.89621552 127.15998108 -33.78076172 127.16113281 C-32.63556564 127.16609772 -31.49036957 127.17106262 -30.31047058 127.17617798 C-26.51687012 127.19079772 -22.72331152 127.19760215 -18.9296875 127.203125 C-16.29135131 127.20887762 -13.65301513 127.21463534 -11.01467896 127.22039795 C-6.18583493 127.22996641 -1.35699991 127.23586461 3.47185242 127.2388947 C10.55963995 127.24336756 17.64723388 127.26088111 24.73496258 127.2898953 C30.88909388 127.31420535 37.04314591 127.32184341 43.19732285 127.32357025 C45.80710782 127.32659069 48.4168921 127.33459858 51.02664566 127.34775543 C54.68604265 127.36488352 58.34497329 127.36291858 62.00439453 127.35644531 C63.07489548 127.3656601 64.14539642 127.37487488 65.24833679 127.3843689 C77.13041875 127.31880228 86.40821265 124.10394749 95.1640625 115.99609375 C100.30426524 110.61524481 103.31591401 104.90377888 106 98 C107.14453125 99.67578125 107.14453125 99.67578125 108 102 C104.7138259 112.17912465 96.15989328 120.76337812 87.02734375 126.0078125 C77.2813386 130.77753371 67.31757607 131.15052625 56.63769531 131.14526367 C55.14548965 131.15030159 55.14548965 131.15030159 53.62313843 131.15544128 C50.35812099 131.16488348 47.09315521 131.16689103 43.828125 131.16796875 C41.54042541 131.17118611 39.25272602 131.17455054 36.96502686 131.17805481 C32.17720056 131.18402934 27.38939226 131.18589645 22.6015625 131.18530273 C16.49470928 131.18520123 10.38797264 131.19884857 4.281147 131.21607494 C-0.4426119 131.22724467 -5.16634307 131.22922041 -9.89011383 131.22869301 C-12.14015352 131.22986582 -14.39019409 131.23424792 -16.64022064 131.24202538 C-51.57737786 131.35148264 -51.57737786 131.35148264 -64.4375 119.65234375 C-72.17539088 111.46952414 -74.64629494 101.27883458 -74.34765625 90.2421875 C-73.16177796 79.18287313 -67.44921654 70.24296178 -58.91796875 63.3125 C-54.44334093 60.2504329 -49.72342664 58.26742827 -44.375 57.4375 C-39.62649389 55.41498814 -38.29976749 52.17086342 -35.73828125 47.8203125 C-29.57449856 37.81974822 -19.7019333 32.3133477 -8.54296875 29.4453125 C-5.9740037 28.99544765 -3.60235598 28.91590232 -1 29 C-1.32742187 27.8965625 -1.65484375 26.793125 -1.9921875 25.65625 C-3.26012023 20.58451908 -3.22325309 15.69985606 -3.125 10.5 C-3.11597656 9.5821875 -3.10695313 8.664375 -3.09765625 7.71875 C-3.07432432 5.47888444 -3.04159235 3.23958817 -3 1 C-1 0 -1 0 0 0 Z " fill="#344656" transform="translate(88,46)"/>
<path d="M0 0 C9.94282828 1.4173819 18.78629039 4.78629039 26 12 C28.1369042 14.91977924 30.10631915 17.91773223 32 21 C28.82757856 23.11494763 28.21219695 23.21553741 24.625 23.0625 C21.25503361 22.98003753 18.28777564 23.15154177 15 24 C15.495 24.61875 15.99 25.2375 16.5 25.875 C18.55125933 30.14845694 18.8081908 34.32517089 18 39 C16.48252573 41.12725688 15.64088362 41.87983432 13.0625 42.36328125 C12.381875 42.34652344 11.70125 42.32976563 11 42.3125 C9.9790625 42.30669922 9.9790625 42.30669922 8.9375 42.30078125 C7 42 7 42 4 40 C2.42000584 36.26546834 2.87193191 31.97011069 3 28 C3.33 27.34 3.66 26.68 4 26 C-0.58470268 26.54579794 -4.14611146 27.40281425 -8 30 C-9.13363022 31.88504028 -9.99061598 33.8090667 -10.87109375 35.82421875 C-12.1357991 38.26173045 -13.63375142 39.99110822 -15.5 42 C-18.9361676 45.7243623 -20.93877926 49.38286554 -23 54 C-23.66 54 -24.32 54 -25 54 C-22.26454667 45.31622598 -18.59189209 37.34967653 -12.3828125 30.63671875 C-8.93196919 26.55224602 -7.08658463 21.7788946 -5.875 16.625 C-5 13 -5 13 -3 11 C-2.39566334 9.3339159 -1.86059337 7.64198177 -1.375 5.9375 C-1.11460937 5.03902344 -0.85421875 4.14054687 -0.5859375 3.21484375 C0.04262533 1.22071595 0.04262533 1.22071595 0 0 Z " fill="#DE4A36" transform="translate(140,14)"/>
<path d="M0 0 C3.3316168 0.68023731 6.05071049 1.93732188 9.0625 3.5 C13.27140916 5.67724023 16.69081702 7.09285718 21.44921875 7.31640625 C22.29677734 7.35830078 23.14433594 7.40019531 24.01757812 7.44335938 C24.89865234 7.48267578 25.77972656 7.52199219 26.6875 7.5625 C27.58017578 7.60568359 28.47285156 7.64886719 29.39257812 7.69335938 C31.59490108 7.79935353 33.79733473 7.90142051 36 8 C37.13085938 11.75439453 37.13085938 11.75439453 35.953125 13.96484375 C30.35093909 20.45361412 24.02929487 23.32356838 16 26 C-1.89087329 26.98343067 -1.89087329 26.98343067 -10 23 C-11.22265625 20.890625 -11.22265625 20.890625 -12 19 C-11.278125 18.34 -10.55625 17.68 -9.8125 17 C-5.02083819 12.19472551 -1.79854829 6.54017561 0 0 Z " fill="#EB9118" transform="translate(179,52)"/>
<path d="M0 0 C6.60424031 6.29134906 11.11166531 13.53832148 14.05859375 22.13671875 C15.78586656 26.70216597 17.82049436 28.69657291 22.12890625 30.9296875 C28.63582428 33.76254725 34.08750718 33.86963431 41.0859375 33.78125 C46.19458061 33.8521139 49.56791248 34.49853155 53.62109375 37.82421875 C55.92804952 42.25357383 56.11566067 45.93814918 55.18359375 50.82421875 C51.6692772 59.26681515 44.41987206 64.54244979 36.234375 68.109375 C33.5674374 69.10280035 30.91125685 70.01376294 28.18359375 70.82421875 C27.57515625 71.02015625 26.96671875 71.21609375 26.33984375 71.41796875 C23.09108238 72.03005423 19.85130189 71.96814236 16.55859375 71.94921875 C15.87796875 71.95308594 15.19734375 71.95695312 14.49609375 71.9609375 C9.43703497 71.95093936 9.43703497 71.95093936 7.18359375 70.82421875 C8.13904741 72.28444038 9.09806053 73.74233343 10.05859375 75.19921875 C10.59226562 76.01132813 11.1259375 76.8234375 11.67578125 77.66015625 C13.1422443 79.90015971 13.1422443 79.90015971 15.18359375 81.82421875 C14.68859375 83.30921875 14.68859375 83.30921875 14.18359375 84.82421875 C10.1124086 81.10199233 6.33434874 76.97578904 4.18359375 71.82421875 C4.55078125 69.578125 4.55078125 69.578125 5.18359375 67.82421875 C5.94671875 67.98921875 6.70984375 68.15421875 7.49609375 68.32421875 C21.83659166 70.26869304 34.40632805 67.42519158 46.18359375 58.82421875 C50.53235973 54.79138876 51.76239297 50.76195879 52.23828125 44.9375 C52.18018323 42.69242649 51.99747558 40.92293651 51.18359375 38.82421875 C48.49082612 37.92662954 46.85581014 37.69172163 44.0859375 37.6484375 C22.80157291 37.08905867 22.80157291 37.08905867 14.48828125 29.57421875 C12.06146759 26.31909144 10.76327107 22.54403668 9.359375 18.76171875 C7.33576014 13.39744396 7.33576014 13.39744396 3.18359375 9.82421875 C2.59578125 8.74140625 2.59578125 8.74140625 1.99609375 7.63671875 C-3.46901036 -0.84361522 -12.32234662 -4.2202685 -21.50390625 -7.48828125 C-36.43161742 -10.68927498 -50.14524465 -7.27183126 -62.81640625 0.82421875 C-63.81756165 1.82306201 -64.81789767 2.82272955 -65.81640625 3.82421875 C-66.47640625 3.82421875 -67.13640625 3.82421875 -67.81640625 3.82421875 C-68.08839844 4.41074219 -68.36039063 4.99726563 -68.640625 5.6015625 C-69.79359761 7.78110208 -71.07082914 9.48331584 -72.62890625 11.38671875 C-76.27343483 16.12371044 -78.53420298 21.33077371 -80.81640625 26.82421875 C-81.14640625 26.82421875 -81.47640625 26.82421875 -81.81640625 26.82421875 C-82.32430521 18.15184395 -77.49000964 11.52301546 -72.06640625 5.07421875 C-52.21878795 -15.93649249 -22.48883613 -17.37348366 0 0 Z " fill="#12222B" transform="translate(169.81640625,16.17578125)"/>
<path d="M0 0 C2.18463102 1.03411837 3.8140937 1.8063476 5.5 3.5625 C7.27460185 5.26316011 8.61006256 5.58794182 11 6 C11 6.66 11 7.32 11 8 C11.87398437 8.16822266 11.87398437 8.16822266 12.765625 8.33984375 C15.20310657 9.06000876 16.7250586 10.04379395 18.75 11.5625 C19.36359375 12.01753906 19.9771875 12.47257813 20.609375 12.94140625 C21.29773438 13.46541016 21.29773438 13.46541016 22 14 C20.68470676 20.41205455 16.73917165 24.72607149 12 29 C5.00565562 33.51740807 -2.60070255 36.40972183 -11 36 C-9.08162729 32.00646451 -6.7650542 28.29997517 -4.4375 24.53515625 C-1.29638175 18.99552107 -0.62713312 14.45405861 -0.375 8.1875 C-0.33632812 7.39923828 -0.29765625 6.61097656 -0.2578125 5.79882812 C-0.16411156 3.8662462 -0.08099221 1.93315624 0 0 Z " fill="#409D54" transform="translate(164,131)"/>
<path d="M0 0 C1.14453125 1.67578125 1.14453125 1.67578125 2 4 C-1.2861741 14.17912465 -9.84010672 22.76337812 -18.97265625 28.0078125 C-28.7186614 32.77753371 -38.68242393 33.15052625 -49.36230469 33.14526367 C-50.85451035 33.15030159 -50.85451035 33.15030159 -52.37686157 33.15544128 C-55.64187901 33.16488348 -58.90684479 33.16689103 -62.171875 33.16796875 C-64.45957459 33.17118611 -66.74727398 33.17455054 -69.03497314 33.17805481 C-73.82279944 33.18402934 -78.61060774 33.18589645 -83.3984375 33.18530273 C-89.50529072 33.18520123 -95.61202736 33.19884857 -101.718853 33.21607494 C-106.4426119 33.22724467 -111.16634307 33.22922041 -115.89011383 33.22869301 C-118.14015352 33.22986582 -120.39019409 33.23424792 -122.64022064 33.24202538 C-157.40710207 33.35094917 -157.40710207 33.35094917 -172 20 C-171.67 18.68 -171.34 17.36 -171 16 C-170.1028125 17.299375 -170.1028125 17.299375 -169.1875 18.625 C-164.80429612 23.92766906 -157.71384571 27.64174152 -151 29 C-149.35815077 29.09290146 -147.71303865 29.13475959 -146.068573 29.14044189 C-145.07624161 29.14615204 -144.08391022 29.15186218 -143.06150818 29.15774536 C-141.97886185 29.15886322 -140.89621552 29.15998108 -139.78076172 29.16113281 C-138.63556564 29.16609772 -137.49036957 29.17106262 -136.31047058 29.17617798 C-132.51687012 29.19079772 -128.72331152 29.19760215 -124.9296875 29.203125 C-122.29135131 29.20887762 -119.65301513 29.21463534 -117.01467896 29.22039795 C-112.18583493 29.22996641 -107.35699991 29.23586461 -102.52814758 29.2388947 C-95.44036005 29.24336756 -88.35276612 29.26088111 -81.26503742 29.2898953 C-75.11090612 29.31420535 -68.95685409 29.32184341 -62.80267715 29.32357025 C-60.19289218 29.32659069 -57.5831079 29.33459858 -54.97335434 29.34775543 C-51.31395735 29.36488352 -47.65502671 29.36291858 -43.99560547 29.35644531 C-42.92510452 29.3656601 -41.85460358 29.37487488 -40.75166321 29.3843689 C-28.86958125 29.31880228 -19.59178735 26.10394749 -10.8359375 17.99609375 C-5.69573476 12.61524481 -2.68408599 6.90377888 0 0 Z " fill="#051019" transform="translate(194,144)"/>
<path d="M0 0 C1.41152344 -0.01160156 1.41152344 -0.01160156 2.8515625 -0.0234375 C3.7590625 -0.02085938 4.6665625 -0.01828125 5.6015625 -0.015625 C6.42221191 -0.01336914 7.24286133 -0.01111328 8.08837891 -0.00878906 C10.57794985 0.27296891 12.21921909 1.00416277 14.375 2.25 C11.5349454 3.19668487 9.92468291 3.32985482 7 3.25 C3.64533353 3.20621969 0.64446503 3.40626709 -2.625 4.25 C-2.13 4.86875 -1.635 5.4875 -1.125 6.125 C0.92625933 10.39845694 1.1831908 14.57517089 0.375 19.25 C-1.14247427 21.37725688 -1.98411638 22.12983432 -4.5625 22.61328125 C-5.5834375 22.58814453 -5.5834375 22.58814453 -6.625 22.5625 C-7.6459375 22.55669922 -7.6459375 22.55669922 -8.6875 22.55078125 C-10.625 22.25 -10.625 22.25 -13.625 20.25 C-15.20499416 16.51546834 -14.75306809 12.22011069 -14.625 8.25 C-14.295 7.59 -13.965 6.93 -13.625 6.25 C-18.20970268 6.79579794 -21.77111146 7.65281425 -25.625 10.25 C-26.75863022 12.13504028 -27.61561598 14.0590667 -28.49609375 16.07421875 C-29.7607991 18.51173045 -31.25875142 20.24110822 -33.125 22.25 C-36.5611676 25.9743623 -38.56377926 29.63286554 -40.625 34.25 C-41.285 34.25 -41.945 34.25 -42.625 34.25 C-38.19771472 20.19545757 -32.41792752 11.00977777 -19.625 3.73046875 C-12.90721294 0.41531081 -7.38318329 -0.0611866 0 0 Z " fill="#E3B634" transform="translate(157.625,33.75)"/>
<path d="M0 0 C0.66 0 1.32 0 2 0 C2 0.66 2 1.32 2 2 C2.66 2 3.32 2 4 2 C5.20272819 4.40545638 5.10071472 5.94996953 5.0625 8.625 C5.05347656 9.44226562 5.04445312 10.25953125 5.03515625 11.1015625 C5.02355469 11.72804688 5.01195312 12.35453125 5 13 C4.34 13 3.68 13 3 13 C2.34 15.64 1.68 18.28 1 21 C1.66 21 2.32 21 3 21 C3 21.66 3 22.32 3 23 C5.2477975 20.94766315 6.0022242 19.99332739 7 17 C12.60325215 16.4163279 15.3600104 17.42098004 19.91015625 20.7109375 C25.12769745 23.92923394 30.41691448 24.36642124 36.375 24.625 C37.11105469 24.66367187 37.84710938 24.70234375 38.60546875 24.7421875 C40.40327406 24.83557998 42.20160108 24.9188371 44 25 C44 25.33 44 25.66 44 26 C23.66224495 26.74482114 23.66224495 26.74482114 16 22 C14.4843394 21.23960078 12.96357539 20.48927528 11.4375 19.75 C10.303125 19.1725 9.16875 18.595 8 18 C7.95875 18.78375 7.9175 19.5675 7.875 20.375 C6.26878317 27.02932685 2.75852038 33.16515021 -3 37 C-2.67 37.99 -2.34 38.98 -2 40 C6.90623361 44.29407692 18.15175692 44.70153624 27.625 41.9453125 C30.50622372 40.75186444 33.24943404 39.46637603 36 38 C37.332885 37.33243743 38.66604536 36.6654226 40 36 C38.8097024 39.57089281 37.82580061 40.09823072 34.75 42.125 C33.59757812 42.90230469 33.59757812 42.90230469 32.421875 43.6953125 C21.94835589 49.3374986 6.28766027 45.79321695 -5 44 C-5.99 40.535 -5.99 40.535 -7 37 C-7.99 39.475 -7.99 39.475 -9 42 C-8.34 42 -7.68 42 -7 42 C-6.34 43.98 -5.68 45.96 -5 48 C-9.22604452 46.49069838 -10.96936766 43.91084747 -13 40 C-13.08377487 35.97880646 -11.98874682 33.70113437 -9.5625 30.625 C-8.716875 29.75875 -7.87125 28.8925 -7 28 C-6.34 28 -5.68 28 -5 28 C-3.14938111 24.4985943 -1.712579 20.89028772 -0.3125 17.1875 C0.14511719 16.00542969 0.60273438 14.82335937 1.07421875 13.60546875 C2.35816017 8.60513991 1.61034093 4.83102278 0 0 Z " fill="#3B4B56" transform="translate(171,34)"/>
<path d="M0 0 C0.99 0.33 1.98 0.66 3 1 C4.12810605 6.44554896 3.7861122 9.91807755 1.875 15.125 C1.25238281 16.89230469 1.25238281 16.89230469 0.6171875 18.6953125 C-1.13107199 22.26784275 -3.06568915 24.34980497 -6 27 C-9.28434752 30.55804315 -11 33.06358758 -11 38 C-9.3102989 41.19165763 -7.97324631 43.39887728 -4.875 45.3125 C-2.22850755 47.6943432 -2.07902443 50.11958163 -1.4921875 53.55078125 C-0.90656413 56.46495469 0.04280593 59.18845339 1 62 C-5.56466371 62.22885708 -12.12829438 62.38606959 -18.69604492 62.49438477 C-20.92820673 62.53954926 -23.16010368 62.60089802 -25.39135742 62.67895508 C-28.60662146 62.78859078 -31.81835947 62.83926238 -35.03515625 62.87890625 C-36.02709488 62.92535782 -37.01903351 62.97180939 -38.04103088 63.01966858 C-42.28332249 63.02273502 -44.92072885 62.99709212 -48.12179565 60.0397644 C-49.98217773 57.62866211 -49.98217773 57.62866211 -51.53684998 55.22471619 C-54.21614289 51.15085758 -57.97370893 48.68419405 -62 46 C-60.50829734 41.0276578 -58.39542583 36.58154261 -56 32 C-54.92137019 35.63566133 -55.32332231 36.64664461 -57 40 C-57.58345476 42.95746492 -57.58345476 42.95746492 -57 46 C-54.79197732 48.70817728 -54.79197732 48.70817728 -52 51 C-51.29875 51.7425 -50.5975 52.485 -49.875 53.25 C-48.02022825 55.22443723 -48.02022825 55.22443723 -45 56 C-45 56.66 -45 57.32 -45 58 C-44.38125 57.814375 -43.7625 57.62875 -43.125 57.4375 C-41 57 -41 57 -39 58 C-39 58.66 -39 59.32 -39 60 C-27.12 60 -15.24 60 -3 60 C-3.66 58.68 -4.32 57.36 -5 56 C-5.1953125 53.640625 -5.1953125 53.640625 -5.125 51.25 C-5.10695312 50.45078125 -5.08890625 49.6515625 -5.0703125 48.828125 C-5.04710937 48.22484375 -5.02390625 47.6215625 -5 47 C-6.65 47 -8.3 47 -10 47 C-13.20997753 41.91753557 -14.03464365 36.8934114 -13 31 C-11.53515625 29.3203125 -11.53515625 29.3203125 -10 28 C-9.690625 27.360625 -9.38125 26.72125 -9.0625 26.0625 C-7.75071051 23.5160851 -6.14774484 21.87927673 -4 20 C-3.34 20 -2.68 20 -2 20 C0.46254726 13.38190423 0.18935472 6.99560484 0 0 Z " fill="#FBAD32" transform="translate(170,36)"/>
<path d="M0 0 C2.3434029 0.37732759 3.67033455 0.65883459 5.34375 2.390625 C12.4264412 13.78035815 13.60274302 24.95731081 13 38 C12.34 37.67 11.68 37.34 11 37 C10.62109375 34.1640625 10.62109375 34.1640625 10.4375 30.625 C10.17697501 25.72744526 10.17697501 25.72744526 9 21 C8.73445313 22.28777344 8.46890625 23.57554688 8.1953125 24.90234375 C7.83898713 26.5808238 7.48219202 28.25920417 7.125 29.9375 C6.95097656 30.78763672 6.77695313 31.63777344 6.59765625 32.51367188 C6.33662109 33.72700195 6.33662109 33.72700195 6.0703125 34.96484375 C5.91320801 35.7137085 5.75610352 36.46257324 5.59423828 37.23413086 C5 39 5 39 3 40 C3.04640625 38.90042969 3.0928125 37.80085938 3.140625 36.66796875 C3.57177384 22.20563003 0.27027266 13.01048024 -8 1 C-6.68 1 -5.36 1 -4 1 C-3.67 2.32 -3.34 3.64 -3 5 C-1.68 4.34 -0.36 3.68 1 3 C0.67 2.01 0.34 1.02 0 0 Z " fill="#48434F" transform="translate(185,102)"/>
<path d="M0 0 C0.02505615 0.69561035 0.0501123 1.3912207 0.07592773 2.10791016 C0.19245974 5.28043455 0.31492568 8.45270355 0.4375 11.625 C0.47681641 12.71941406 0.51613281 13.81382813 0.55664062 14.94140625 C0.59853516 16.00488281 0.64042969 17.06835938 0.68359375 18.1640625 C0.73858032 19.62513428 0.73858032 19.62513428 0.79467773 21.11572266 C0.95370454 24.07289528 0.95370454 24.07289528 1.58227539 27.23974609 C2 30 2 30 1 32 C-1.1347777 32.34738385 -3.28494515 32.60164694 -5.4375 32.8125 C-15.85522515 34.18742819 -23.83504568 38.26493103 -31 46 C-33.80358568 49.69997022 -36.27125532 53.51439883 -38.31640625 57.68359375 C-40.52400863 60.72096779 -41.97526589 60.82921098 -45.625 61.4375 C-51.84825282 62.74408099 -55.97155589 65.23430419 -61 69 C-61.99 69.495 -61.99 69.495 -63 70 C-62.62992897 67.43712004 -62.25850366 66.24560918 -60.35546875 64.4375 C-55.90734006 61.48811016 -52.0593123 59.64933525 -46.875 58.3125 C-40.58951502 56.41649819 -38.65760187 53.34499183 -35.5625 47.75 C-30.38924894 38.64507813 -21.06249399 32.96921092 -11.1875 30.125 C-7.69913069 29.22843241 -4.60098572 28.88363062 -1 29 C-1.32742187 27.8965625 -1.65484375 26.793125 -1.9921875 25.65625 C-3.26012023 20.58451908 -3.22325309 15.69985606 -3.125 10.5 C-3.11597656 9.5821875 -3.10695312 8.664375 -3.09765625 7.71875 C-3.07432432 5.47888444 -3.04159235 3.23958817 -3 1 C-1 0 -1 0 0 0 Z " fill="#122032" transform="translate(88,46)"/>
<path d="M0 0 C3.3316168 0.68023731 6.05071049 1.93732188 9.0625 3.5 C13.27140916 5.67724023 16.69081702 7.09285718 21.44921875 7.31640625 C22.29677734 7.35830078 23.14433594 7.40019531 24.01757812 7.44335938 C24.89865234 7.48267578 25.77972656 7.52199219 26.6875 7.5625 C27.58017578 7.60568359 28.47285156 7.64886719 29.39257812 7.69335938 C31.59490108 7.79935353 33.79733473 7.90142051 36 8 C37.13085938 11.75439453 37.13085938 11.75439453 35.953125 13.96484375 C30.35093909 20.45361412 24.02929487 23.32356838 16 26 C-1.89087329 26.98343067 -1.89087329 26.98343067 -10 23 C-11.22265625 20.890625 -11.22265625 20.890625 -12 19 C-11.278125 18.34 -10.55625 17.68 -9.8125 17 C-5.02083819 12.19472551 -1.79854829 6.54017561 0 0 Z M1 3 C0.67 4.98 0.34 6.96 0 9 C-0.66 9 -1.32 9 -2 9 C-2.5345256 10.24420647 -3.05208611 11.49570936 -3.5625 12.75 C-3.85253906 13.44609375 -4.14257812 14.1421875 -4.44140625 14.859375 C-5.07831803 17.30012784 -4.80248831 18.6403655 -4 21 C-3.34 21 -2.68 21 -2 21 C-2 21.66 -2 22.32 -2 23 C5.28701103 24.49477149 12.02639535 24.86096601 19 22 C19 21.34 19 20.68 19 20 C20.65 20 22.3 20 24 20 C24 19.34 24 18.68 24 18 C25.0725 17.9175 26.145 17.835 27.25 17.75 C31.28646209 16.94270758 32.59821443 16.26642837 35 13 C35 12.01 35 11.02 35 10 C33.91203125 9.98582031 32.8240625 9.97164062 31.703125 9.95703125 C23.18863737 9.72386409 16.2978996 8.98068209 8.515625 5.15625 C5.99415331 3.9973127 3.73147281 3.43231944 1 3 Z " fill="#DE932C" transform="translate(179,52)"/>
<path d="M0 0 C-0.33 0.66 -0.66 1.32 -1 2 C-5.72726482 0.13168762 -10.39286077 -1.87167612 -15.0625 -3.87890625 C-25.33820453 -7.80061795 -38.94171133 -7.45202941 -49 -3 C-54.198413 -0.47663242 -58.90888481 1.89667253 -63 6 C-63.66 6 -64.32 6 -65 6 C-65.27199219 6.58652344 -65.54398438 7.17304688 -65.82421875 7.77734375 C-66.97719136 9.95688333 -68.25442289 11.65909709 -69.8125 13.5625 C-73.45702858 18.29949169 -75.71779673 23.50655496 -78 29 C-78.33 29 -78.66 29 -79 29 C-79.50789896 20.3276252 -74.67360339 13.69879671 -69.25 7.25 C-48.81689696 -14.38050605 -24.12719442 -12.87182829 0 0 Z " fill="#152236" transform="translate(167,14)"/>
<path d="M0 0 C1.14453125 1.67578125 1.14453125 1.67578125 2 4 C-1.21058085 13.94496994 -9.70299356 22.87160842 -18.74432659 27.91845226 C-26.93216439 31.84434748 -35.23535913 32.41647143 -44.17260742 32.2487793 C-45.33488861 32.23946381 -46.4971698 32.23014832 -47.69467163 32.22055054 C-51.49858185 32.1864475 -55.30182776 32.13050725 -59.10546875 32.07421875 C-61.75775323 32.04615699 -64.41002208 32.01931753 -67.06233215 31.99409485 C-73.30598679 31.9320613 -79.54933929 31.85428144 -85.79273826 31.77067453 C-92.90760321 31.67617703 -100.02262645 31.59949131 -107.13771665 31.52421319 C-121.75873003 31.36912742 -136.37942479 31.19196073 -151 31 C-151 30.67 -151 30.34 -151 30 C-150.09388568 29.99641747 -150.09388568 29.99641747 -149.16946602 29.99276257 C-134.43656927 29.93349607 -119.70381837 29.85787196 -104.97110176 29.76428509 C-97.8463095 29.71941614 -90.72156623 29.67998127 -83.59667969 29.65356445 C-77.38296191 29.63051193 -71.16940033 29.59703375 -64.95580661 29.55129844 C-61.669042 29.52746325 -58.38246259 29.51022696 -55.09561539 29.50238609 C-51.41653908 29.49272341 -47.73802021 29.46463646 -44.05908203 29.43237305 C-42.98229691 29.43380814 -41.90551178 29.43524323 -40.7960968 29.4367218 C-28.90176596 29.28979735 -19.60898006 26.11986782 -10.8359375 17.99609375 C-5.69573476 12.61524481 -2.68408599 6.90377888 0 0 Z " fill="#01101E" transform="translate(194,144)"/>
<path d="M0 0 C6.75 -0.125 6.75 -0.125 9 1 C11.04253309 0.89006196 13.08412501 0.76232105 15.125 0.625 C20.13893678 0.56941312 22.90239381 0.96204562 26.75 4.25 C28.77421065 6.2401903 29.85733144 7.39906274 30.515625 10.171875 C30.67546875 10.77515625 30.8353125 11.3784375 31 12 C32.485 12.495 32.485 12.495 34 13 C35.3125 15.1875 35.3125 15.1875 36 18 C35.125 21.3125 35.125 21.3125 34 24 C33.505 23.01 33.505 23.01 33 22 C32.34 22 31.68 22 31 22 C31 21.34 31 20.68 31 20 C30.401875 19.7525 29.80375 19.505 29.1875 19.25 C26.68373081 17.81927475 25.51927612 16.4308418 24 14 C24 13.34 24 12.68 24 12 C23.42378906 11.73058594 22.84757812 11.46117187 22.25390625 11.18359375 C19.96541933 9.98184065 18.01873852 8.59133502 15.9375 7.0625 C10.94602527 3.65997806 5.85976055 2.24862187 0 1 C0 0.67 0 0.34 0 0 Z " fill="#404755" transform="translate(142,14)"/>
<path d="M0 0 C1.15196757 3.45590271 0.99711885 4.00739077 -0.4375 7.6875 C-2.14596925 12.3760389 -2.27606712 16.69512317 -2.25 21.625 C-2.24669678 22.34131592 -2.24339355 23.05763184 -2.23999023 23.7956543 C-2.12950085 30.14476947 -1.65891233 36.15039288 1 42 C2.65 42 4.3 42 6 42 C6.66 40.35 7.32 38.7 8 37 C8.99 37 9.98 37 11 37 C11.433125 35.88625 11.433125 35.88625 11.875 34.75 C13 32 13 32 14.0625 30.0625 C15.17130339 27.92892362 15.17130339 27.92892362 15.25 25.0625 C16.31573244 20.71075922 18.42274255 19.58780326 22 17 C20.24251433 23.1044029 17.37942783 28.64559044 14.5625 34.3125 C14.07201172 35.32634766 13.58152344 36.34019531 13.07617188 37.38476562 C12.59857422 38.34705078 12.12097656 39.30933594 11.62890625 40.30078125 C11.19650635 41.17903564 10.76410645 42.05729004 10.31860352 42.9621582 C9 45 9 45 6 46 C2.93340891 45.27516938 1.40235258 44.89342595 -1 43 C-2.82432828 39.80878695 -3.96609512 36.51861177 -5 33 C-5.19078125 32.37867188 -5.3815625 31.75734375 -5.578125 31.1171875 C-7.73110104 20.31243739 -5.82782593 10.78228335 -1 1 C-0.67 0.67 -0.34 0.34 0 0 Z " fill="#507FC8" transform="translate(100,35)"/>
<path d="M0 0 C6.53798168 2.71087045 11.47358582 7.0037055 14.6875 13.3125 C17.97811751 17.13673116 21.15231623 16.98503856 26.015625 17.578125 C31.09332749 18.2959154 35.67064958 19.88727301 39 24 C36.51775831 23.58629305 34.41633593 23.23311184 32.20703125 21.99609375 C29.40566146 20.73175871 26.99851796 20.6157749 23.9375 20.4375 C20.66820969 20.23948365 18.11608697 20.03869566 15 19 C14.67 18.34 14.34 17.68 14 17 C13.01 17 12.02 17 11 17 C10.34 17.99 9.68 18.98 9 20 C6.36 17.03 3.72 14.06 1 11 C1.66 10.67 2.32 10.34 3 10 C3.66 10.33 4.32 10.66 5 11 C5 9.02 5 7.04 5 5 C4.34 5 3.68 5 3 5 C1.375 3.625 1.375 3.625 0 2 C0 1.34 0 0.68 0 0 Z " fill="#364955" transform="translate(108,82)"/>
<path d="M0 0 C2 2 2 2 2.375 5.9375 C2.28635216 8.80551846 2.21085143 9.72167611 0.4375 12.0625 C-3.0211441 13.39274773 -5.4440159 12.85607025 -9 12 C-11 10 -11 10 -11.375 6.0625 C-11.28635216 3.19448154 -11.21085143 2.27832389 -9.4375 -0.0625 C-5.9788559 -1.39274773 -3.5559841 -0.85607025 0 0 Z " fill="#4B492E" transform="translate(155,42)"/>
<path d="M0 0 C0.99 0.33 1.98 0.66 3 1 C2.24958569 11.28179611 1.59375641 20.07150419 -4 29 C-4.67949091 30.32684374 -5.35023237 31.65835018 -6 33 C-1.68898479 32.09241785 1.95403663 31.20190331 5.75 28.9375 C8.34982776 27.38760268 10.07404011 26.46815358 13 26 C13 25.01 13 24.02 13 23 C13.99 23 14.98 23 16 23 C17.80230168 19.17010894 18.19622241 16.21878192 18 12 C19.32 12.66 20.64 13.32 22 14 C20.68470676 20.41205455 16.73917165 24.72607149 12 29 C5.00565562 33.51740807 -2.60070255 36.40972183 -11 36 C-9.08162729 32.00646451 -6.7650542 28.29997517 -4.4375 24.53515625 C-1.29638175 18.99552107 -0.62713312 14.45405861 -0.375 8.1875 C-0.33632812 7.39923828 -0.29765625 6.61097656 -0.2578125 5.79882812 C-0.16411156 3.8662462 -0.08099221 1.93315624 0 0 Z " fill="#4E9065" transform="translate(164,131)"/>
<path d="M0 0 C0.99 0.33 1.98 0.66 3 1 C4.12810605 6.44554896 3.7861122 9.91807755 1.875 15.125 C1.45992187 16.30320312 1.04484375 17.48140625 0.6171875 18.6953125 C-1.13107199 22.26784275 -3.06568915 24.34980497 -6 27 C-9.28434752 30.55804315 -11 33.06358758 -11 38 C-9.3102989 41.19165763 -7.97324631 43.39887728 -4.875 45.3125 C-2.19296857 47.72632829 -2.07240721 50.23381058 -1.4375 53.703125 C-0.89150402 56.56960391 0.015374 59.25711328 1 62 C0.01 61.34 -0.98 60.68 -2 60 C-2 59.34 -2 58.68 -2 58 C-2.66 58 -3.32 58 -4 58 C-5.20272819 55.59454362 -5.10071472 54.05003047 -5.0625 51.375 C-5.04896484 50.14910156 -5.04896484 50.14910156 -5.03515625 48.8984375 C-5.02355469 48.27195313 -5.01195312 47.64546875 -5 47 C-6.65 47 -8.3 47 -10 47 C-13.20997753 41.91753557 -14.03464365 36.8934114 -13 31 C-11.53515625 29.3203125 -11.53515625 29.3203125 -10 28 C-9.690625 27.360625 -9.38125 26.72125 -9.0625 26.0625 C-7.75071051 23.5160851 -6.14774484 21.87927673 -4 20 C-3.34 20 -2.68 20 -2 20 C0.46254726 13.38190423 0.18935472 6.99560484 0 0 Z " fill="#CEB04E" transform="translate(170,36)"/>
<path d="M0 0 C0.33 0 0.66 0 1 0 C2.02107654 11.57220084 0.42945618 19.21206772 -6 29 C-8.234375 31.39453125 -8.234375 31.39453125 -10 33 C-10.66 32.67 -11.32 32.34 -12 32 C-11.625 29.5625 -11.625 29.5625 -11 27 C-10.34 26.67 -9.68 26.34 -9 26 C-8.67 25.01 -8.34 24.02 -8 23 C-8.99 23.33 -9.98 23.66 -11 24 C-12.21386936 20.35839192 -11.6674695 19.66834531 -10.0625 16.3125 C-9.68222656 15.50425781 -9.30195313 14.69601563 -8.91015625 13.86328125 C-8.60980469 13.24839844 -8.30945313 12.63351563 -8 12 C-7.01 12.33 -6.02 12.66 -5 13 C-3.8125 16.0625 -3.8125 16.0625 -3 19 C-1.2100144 12.6753842 -0.45759953 6.5508985 0 0 Z " fill="#2F4D52" transform="translate(163,133)"/>
<path d="M0 0 C0.99 0.33 1.98 0.66 3 1 C5.96101753 8.63630837 5.17604345 16.94112192 5 25 C4.34 24.67 3.68 24.34 3 24 C2.62109375 21.1640625 2.62109375 21.1640625 2.4375 17.625 C2.17697501 12.72744526 2.17697501 12.72744526 1 8 C0.73445312 9.28777344 0.46890625 10.57554688 0.1953125 11.90234375 C-0.16101287 13.5808238 -0.51780798 15.25920417 -0.875 16.9375 C-1.04902344 17.78763672 -1.22304687 18.63777344 -1.40234375 19.51367188 C-1.57636719 20.32255859 -1.75039062 21.13144531 -1.9296875 21.96484375 C-2.08679199 22.7137085 -2.24389648 23.46257324 -2.40576172 24.23413086 C-3 26 -3 26 -5 27 C-4.98839844 25.85402344 -4.97679687 24.70804688 -4.96484375 23.52734375 C-4.95545758 21.99739748 -4.94635827 20.46744942 -4.9375 18.9375 C-4.92912109 18.18533203 -4.92074219 17.43316406 -4.91210938 16.65820312 C-4.89191659 11.99366882 -5.22404041 7.60076827 -6 3 C-4.02 3.99 -4.02 3.99 -2 5 C-1.34 3.35 -0.68 1.7 0 0 Z " fill="#273542" transform="translate(193,115)"/>
<path d="M0 0 C5.50053397 4.73657092 8.66184128 10.84150041 10 18 C10.11860998 20.28944841 10.17517481 22.58251435 10.1875 24.875 C10.20167969 26.06867188 10.21585938 27.26234375 10.23046875 28.4921875 C10.00004992 31.99924022 9.26279461 34.73570089 8 38 C3.69235185 36.43358249 -0.06171464 34.31663844 -4 32 C-4 31.34 -4 30.68 -4 30 C0.95 30.99 0.95 30.99 6 32 C6.0543251 28.97892098 6.09382927 25.95883472 6.125 22.9375 C6.14175781 22.08994141 6.15851563 21.24238281 6.17578125 20.36914062 C6.215839 15.18166209 5.84623367 10.87200553 4 6 C2.01432266 4.50256112 2.01432266 4.50256112 0 4 C0 2.68 0 1.36 0 0 Z " fill="#B15751" transform="translate(179,107)"/>
<path d="M0 0 C0.598125 0.598125 1.19625 1.19625 1.8125 1.8125 C2.4003125 2.4003125 2.4003125 2.4003125 3 3 C2.67 3.66 2.34 4.32 2 5 C1.60167969 4.57847656 1.20335937 4.15695313 0.79296875 3.72265625 C0.26316406 3.17480469 -0.26664063 2.62695312 -0.8125 2.0625 C-1.59560547 1.24458984 -1.59560547 1.24458984 -2.39453125 0.41015625 C-5.60337732 -2.40831925 -8.91874673 -2.11746953 -12.98046875 -2.09765625 C-14.72553711 -2.09282227 -14.72553711 -2.09282227 -16.50585938 -2.08789062 C-18.32827148 -2.07532227 -18.32827148 -2.07532227 -20.1875 -2.0625 C-22.02731445 -2.05573242 -22.02731445 -2.05573242 -23.90429688 -2.04882812 C-26.93624668 -2.03703065 -29.96809906 -2.02056921 -33 -2 C-32.39744385 -1.62343262 -31.7948877 -1.24686523 -31.17407227 -0.85888672 C-26.73399213 1.99247514 -23.03946821 4.51904464 -19.9375 8.875 C-19.08478516 10.04675781 -19.08478516 10.04675781 -18.21484375 11.2421875 C-17.81394531 11.82226562 -17.41304687 12.40234375 -17 13 C-17.33 13.66 -17.66 14.32 -18 15 C-18.47308594 14.41992188 -18.94617188 13.83984375 -19.43359375 13.2421875 C-28.50140357 2.53050572 -37.07591666 -1.80019236 -51 -3 C-51 -3.33 -51 -3.66 -51 -4 C-44.5414529 -4.27003877 -38.08236719 -4.49986151 -31.62133789 -4.7019043 C-29.42406949 -4.77534653 -27.22708749 -4.85795765 -25.03051758 -4.94995117 C-21.87091299 -5.08067865 -18.71174195 -5.17827981 -15.55078125 -5.26953125 C-14.08020012 -5.34105156 -14.08020012 -5.34105156 -12.57991028 -5.41401672 C-6.57078225 -5.5471687 -3.82365205 -5.081162 0 0 Z " fill="#B95E3C" transform="translate(176,102)"/>
<path d="M0 0 C0.66 0.33 1.32 0.66 2 1 C1.32904297 1.69222656 1.32904297 1.69222656 0.64453125 2.3984375 C-8.49529766 12.25931902 -12.4682553 22.67823774 -12.3359375 36.08203125 C-11.91598854 40.97980811 -10.64832909 45.14440327 -8.875 49.70703125 C-8 52 -8 52 -8 54 C-8.66 54 -9.32 54 -10 54 C-15.88779733 44.64260781 -16.52880643 34.72959789 -15 24 C-11.75093497 9.79005875 -11.75093497 9.79005875 -6.796875 6.56640625 C-6.20390625 6.37949219 -5.6109375 6.19257813 -5 6 C-5 5.34 -5 4.68 -5 4 C-4.34 4 -3.68 4 -3 4 C-3 3.34 -3 2.68 -3 2 C-2.01 1.34 -1.02 0.68 0 0 Z " fill="#2F4D71" transform="translate(107,24)"/>
<path d="M0 0 C0.99 0 1.98 0 3 0 C5.77371275 2.77371275 5.72884742 5.09015749 6.3125 8.9375 C6.61607422 10.80728516 6.61607422 10.80728516 6.92578125 12.71484375 C7 16 7 16 5.6171875 17.8046875 C5.08351563 18.19914062 4.54984375 18.59359375 4 19 C2.82425289 21.09989652 2.82425289 21.09989652 2 23 C-1.36690317 17.94964525 -1.23362004 13.69093103 -1.0078125 7.70703125 C-0.85580528 4.90097692 -0.85580528 4.90097692 -2 2 C-1.34 1.34 -0.68 0.68 0 0 Z " fill="#3D5061" transform="translate(19,135)"/>
<path d="M0 0 C1.65 0 3.3 0 5 0 C4.57316761 1.58624235 4.13303842 3.1689098 3.6875 4.75 C3.44386719 5.63171875 3.20023438 6.5134375 2.94921875 7.421875 C1.97309203 10.07308338 0.71772265 11.78358368 -1 14 C-1.67258667 16.33163378 -2.33847444 18.6652039 -3 21 C-5.23878499 26.40865346 -8.09311242 30.6590138 -12 35 C-12 32 -12 32 -11 29 C-10.34 29 -9.68 29 -9 29 C-8.97421875 28.28714844 -8.9484375 27.57429688 -8.921875 26.83984375 C-8.54233742 20.43083418 -7.65098718 16.2998201 -4 11 C-3.34 11 -2.68 11 -2 11 C-1.71125 10.0925 -1.4225 9.185 -1.125 8.25 C-0.23468224 5.67797092 0.71494413 3.38653234 2 1 C1.34 0.67 0.68 0.34 0 0 Z " fill="#6477BD" transform="translate(136,15)"/>
<path d="M0 0 C3.38891322 0.68886787 6.18011613 1.98716486 9.25 3.5625 C10.14203125 4.01753906 11.0340625 4.47257812 11.953125 4.94140625 C12.96632812 5.46541016 12.96632812 5.46541016 14 6 C12.15625 6.5859375 12.15625 6.5859375 10 7 C7.5 5.625 7.5 5.625 5 4 C2.80869466 3.30420546 2.80869466 3.30420546 1 3 C0.67 4.98 0.34 6.96 0 9 C-0.66 9 -1.32 9 -2 9 C-2.268125 9.7425 -2.53625 10.485 -2.8125 11.25 C-4 14 -4 14 -5.6875 16.0625 C-7.18725298 17.90348232 -7.18725298 17.90348232 -7.0625 20.125 C-6.09617529 22.27729045 -6.09617529 22.27729045 -3.35546875 23.1015625 C5.5459953 25.484958 15.17862404 24.27648412 24 22 C20.08691605 25.91308395 15.24495776 26.25776534 9.88305664 26.32910156 C9.15852295 26.32362305 8.43398926 26.31814453 7.6875 26.3125 C6.56299438 26.30621582 6.56299438 26.30621582 5.41577148 26.29980469 C-0.25746412 26.18416246 -4.8422243 25.5336442 -10 23 C-11.22265625 20.890625 -11.22265625 20.890625 -12 19 C-11.278125 18.34 -10.55625 17.68 -9.8125 17 C-5.02083819 12.19472551 -1.79854829 6.54017561 0 0 Z " fill="#C39451" transform="translate(179,52)"/>
<path d="M0 0 C-0.33 0.66 -0.66 1.32 -1 2 C-5.72726482 0.13168762 -10.39286077 -1.87167612 -15.0625 -3.87890625 C-19.36167597 -5.51968218 -23.27398676 -6.1272646 -27.86328125 -6.09765625 C-28.74951172 -6.09443359 -29.63574219 -6.09121094 -30.54882812 -6.08789062 C-31.9168457 -6.07532227 -31.9168457 -6.07532227 -33.3125 -6.0625 C-34.24384766 -6.05798828 -35.17519531 -6.05347656 -36.13476562 -6.04882812 C-38.42324373 -6.03709234 -40.71158808 -6.02067363 -43 -6 C-42.67 -6.99 -42.34 -7.98 -42 -9 C-25.75447381 -11.76519595 -14.2126558 -7.58243424 0 0 Z " fill="#101D2B" transform="translate(167,14)"/>
<path d="M0 0 C0.66 0.66 1.32 1.32 2 2 C1.57847656 2.79664062 1.15695313 3.59328125 0.72265625 4.4140625 C0.17480469 5.47367187 -0.37304688 6.53328125 -0.9375 7.625 C-1.48277344 8.66914062 -2.02804688 9.71328125 -2.58984375 10.7890625 C-6.37328358 19.40398644 -5.60444285 28.07677275 -2.8515625 36.8359375 C-1.99495802 39.23668926 -1.99495802 39.23668926 0 42 C-0.375 44.1875 -0.375 44.1875 -1 46 C-7.57335866 37.38663348 -9.16786736 27.67764446 -8 17 C-6.42464551 10.66626706 -3.93189717 5.19572126 0 0 Z " fill="#1C2A3C" transform="translate(22,116)"/>
<path d="M0 0 C5.60325215 -0.5836721 8.3600104 0.42098004 12.91015625 3.7109375 C18.12769745 6.92923394 23.41691448 7.36642124 29.375 7.625 C30.11105469 7.66367187 30.84710938 7.70234375 31.60546875 7.7421875 C33.40327406 7.83557998 35.20160108 7.9188371 37 8 C37 8.33 37 8.66 37 9 C16.66224495 9.74482114 16.66224495 9.74482114 9 5 C7.4843394 4.23960078 5.96357539 3.48927528 4.4375 2.75 C3.303125 2.1725 2.16875 1.595 1 1 C0.95875 1.78375 0.9175 2.5675 0.875 3.375 C-0.57523369 9.383111 -3.47184095 15.31577843 -8.703125 18.80078125 C-9.46109375 19.19652344 -10.2190625 19.59226562 -11 20 C-11 19.34 -11 18.68 -11 18 C-10.34 18 -9.68 18 -9 18 C-8.67 16.68 -8.34 15.36 -8 14 C-7.34 14 -6.68 14 -6 14 C-5.7525 13.360625 -5.505 12.72125 -5.25 12.0625 C-3.59188428 8.00011649 -1.7964416 4.00275094 0 0 Z " fill="#504634" transform="translate(178,51)"/>
<path d="M0 0 C6.75 -0.125 6.75 -0.125 9 1 C12.31592816 0.9911693 15.62016015 0.86806096 18.93359375 0.7421875 C22 1 22 1 23.9296875 2.3515625 C25 4 25 4 24.6875 6.5 C24.460625 7.325 24.23375 8.15 24 9 C24 9.99 24 10.98 24 12 C21.05051843 10.62093591 18.55729164 8.98694507 15.9375 7.0625 C10.94602527 3.65997806 5.85976055 2.24862187 0 1 C0 0.67 0 0.34 0 0 Z " fill="#464855" transform="translate(142,14)"/>
<path d="M0 0 C0 0.99 0 1.98 0 3 C-1.79296875 4.5703125 -1.79296875 4.5703125 -4.1875 6.125 C-4.96480469 6.64320312 -5.74210937 7.16140625 -6.54296875 7.6953125 C-15.99402709 12.7138395 -29.08993553 10.448714 -38.90234375 7.65625 C-39.59457031 7.4396875 -40.28679687 7.223125 -41 7 C-41 6.01 -41 5.02 -41 4 C-39.865625 4.495 -38.73125 4.99 -37.5625 5.5 C-26.80824159 9.02821096 -15.43211357 8.10554713 -5.3203125 3.2890625 C-2.84278788 1.95355894 -2.84278788 1.95355894 0 0 Z " fill="#544934" transform="translate(210,70)"/>
<path d="M0 0 C8.48633001 3.56002506 13.65415565 12.27755391 17.00390625 20.4375 C17.33261719 21.283125 17.66132813 22.12875 18 23 C18.59943469 24.39787199 19.20286416 25.79404666 19.8125 27.1875 C20.204375 28.115625 20.59625 29.04375 21 30 C19.16015625 29.859375 19.16015625 29.859375 17 29 C15.62109375 26.453125 15.62109375 26.453125 14.4375 23.25 C12.11761333 16.03786034 12.11761333 16.03786034 7 11 C6.54625 10.236875 6.0925 9.47375 5.625 8.6875 C4.10334089 5.92890733 4.10334089 5.92890733 1.8125 3.8125 C1.214375 3.214375 0.61625 2.61625 0 2 C0 1.34 0 0.68 0 0 Z " fill="#1F2F3B" transform="translate(166,15)"/>
<path d="M0 0 C7.70278382 1.09805642 16.60734576 2.8872419 21.78515625 9.1640625 C22.18605469 9.76992188 22.58695313 10.37578125 23 11 C19.50501876 9.73792344 16.95342864 8.21507148 14 6 C10.20236734 4.10118367 7.22617499 3.80343372 3 4 C2.82984375 4.60328125 2.6596875 5.2065625 2.484375 5.828125 C-0.00429646 14.03544576 -0.00429646 14.03544576 -4 17 C-4.66 17 -5.32 17 -6 17 C-4.43130972 12.94755011 -2.64444664 9.02060486 -0.8046875 5.0859375 C0.17995776 2.9061355 0.17995776 2.9061355 0 0 Z " fill="#A95A60" transform="translate(140,14)"/>
<path d="M0 0 C1.32 0.33 2.64 0.66 4 1 C4 1.66 4 2.32 4 3 C4.94875 3.12375 5.8975 3.2475 6.875 3.375 C10 4 10 4 12 6 C11.01 6.66 10.02 7.32 9 8 C9.33 8.66 9.66 9.32 10 10 C7.03 10 4.06 10 1 10 C-0.625 7.25 -0.625 7.25 -2 4 C-1.1875 1.625 -1.1875 1.625 0 0 Z " fill="#425565" transform="translate(119,98)"/>
<path d="M0 0 C1.70884005 1.62339805 3.37446717 3.29319053 5 5 C5 5.66 5 6.32 5 7 C4.33581055 6.97381592 3.67162109 6.94763184 2.98730469 6.9206543 C-14.72347819 5.98547874 -14.72347819 5.98547874 -31 12 C-31.92425781 12.55042969 -32.84851563 13.10085937 -33.80078125 13.66796875 C-34.52652344 14.10753906 -35.25226563 14.54710937 -36 15 C-36 14.01 -36 13.02 -36 12 C-33.7965194 10.8439273 -31.58796844 9.70015279 -29.375 8.5625 C-28.75753906 8.23701172 -28.14007813 7.91152344 -27.50390625 7.57617188 C-21.01982473 4.26587762 -15.51002487 3.86067657 -8.3125 3.875 C-7.00925781 3.87242188 -5.70601562 3.86984375 -4.36328125 3.8671875 C-1 4 -1 4 2 5 C1.34 3.35 0.68 1.7 0 0 Z " fill="#C95921" transform="translate(166,28)"/>
<path d="M0 0 C0.33 0 0.66 0 1 0 C1.3754005 3.76504615 1.32038469 5.52489963 -0.828125 8.7109375 C-1.62734375 9.59007812 -2.4265625 10.46921875 -3.25 11.375 C-7.05486612 15.75508998 -9.69704241 19.69318469 -12 25 C-12.66 25 -13.32 25 -14 25 C-11.03577163 15.58997316 -6.93062002 7.09179723 0 0 Z " fill="#D4B650" transform="translate(129,43)"/>
<path d="M0 0 C2.64752004 2.57784846 4.94432065 4.91648098 7 8 C9.64376223 8.69551039 9.64376223 8.69551039 12.6875 9 C18.87114615 9.8971477 24.84268765 10.86449651 29 16 C26.51775831 15.58629305 24.41633593 15.23311184 22.20703125 13.99609375 C19.40566146 12.73175871 16.99851796 12.6157749 13.9375 12.4375 C10.66820969 12.23948365 8.11608697 12.03869566 5 11 C4.67 9.35 4.34 7.7 4 6 C3.01 5.67 2.02 5.34 1 5 C0.67 3.35 0.34 1.7 0 0 Z " fill="#524742" transform="translate(118,90)"/>
<path d="M0 0 C1.07862981 3.63566133 0.67667769 4.64664461 -1 8 C-1.58345476 10.95746492 -1.58345476 10.95746492 -1 14 C0.81437054 16.20603392 0.81437054 16.20603392 2.3671875 17.5078125 C5.20820402 20.10414817 7.61964026 23.10250186 10.1328125 26.01171875 C12.03312323 28.18588408 12.03312323 28.18588408 15 30 C12.71484375 30.26171875 12.71484375 30.26171875 10 30 C8.19140625 28.20703125 8.19140625 28.20703125 6.5625 25.8125 C2.90680818 20.74709696 -0.78955998 17.47362668 -6 14 C-4.50829734 9.0276578 -2.39542583 4.58154261 0 0 Z " fill="#CFB759" transform="translate(114,68)"/>
<path d="M0 0 C7.26 0.33 14.52 0.66 22 1 C23 5 23 5 21.77734375 7.0703125 C18.15218525 11.11879099 15.5538484 13.91632226 10 15 C12.48726384 12.44167148 14.92346105 10.05914373 17.75 7.875 C20.25052455 6.12568403 20.25052455 6.12568403 21 3 C19.81921875 3.03480469 18.6384375 3.06960937 17.421875 3.10546875 C15.86459758 3.13361232 14.30730475 3.16091187 12.75 3.1875 C11.58404297 3.22520508 11.58404297 3.22520508 10.39453125 3.26367188 C9.26337891 3.27817383 9.26337891 3.27817383 8.109375 3.29296875 C7.07248535 3.31653442 7.07248535 3.31653442 6.01464844 3.34057617 C4 3 4 3 0 0 Z " fill="#BA8A4B" transform="translate(193,59)"/>
<path d="M0 0 C3.875 1.75 3.875 1.75 5 4 C5.85253692 9.70875988 5.45417599 14.02359653 2.3125 18.9375 C-0.07148869 22.14257743 -2.27915469 24.3584506 -6 26 C-6 21.77679562 -3.92905729 20.92905729 -1 18 C1.57598394 13.82512948 2.5096135 10.89228961 2 6 C1.07585059 2.72435637 1.07585059 2.72435637 0 0 Z " fill="#1D2835" transform="translate(220,53)"/>
<path d="M0 0 C0.66 0.66 1.32 1.32 2 2 C1.625 5.625 1.625 5.625 1 9 C2.32 8.67 3.64 8.34 5 8 C4.34 9.65 3.68 11.3 3 13 C-3.625 14 -3.625 14 -7 14 C-5.38731308 11.28775382 -3.75098126 8.62647188 -2 6 C-1.83286431 3.37468476 -1.83286431 3.37468476 -2 1 C-1.34 0.67 -0.68 0.34 0 0 Z " fill="#434B4B" transform="translate(217,58)"/>
<path d="M0 0 C0.66 0 1.32 0 2 0 C2.66 1.32 3.32 2.64 4 4 C4.66 3.67 5.32 3.34 6 3 C6.8125 5.1875 6.8125 5.1875 7 8 C4.5625 10.8125 4.5625 10.8125 2 13 C-0.37339853 11.14255768 -0.9940468 10.02152312 -1.8125 7.0625 C-2.00613718 3.89975932 -1.70401547 2.60614131 0 0 Z " fill="#3A4B5B" transform="translate(188,108)"/>
<path d="M0 0 C0.66 0 1.32 0 2 0 C2 0.66 2 1.32 2 2 C2.66 2 3.32 2 4 2 C5.20272819 4.40545638 5.10071472 5.94996953 5.0625 8.625 C5.05347656 9.44226562 5.04445312 10.25953125 5.03515625 11.1015625 C5.02355469 11.72804688 5.01195312 12.35453125 5 13 C4.34 13 3.68 13 3 13 C2.92523438 13.74765625 2.85046875 14.4953125 2.7734375 15.265625 C1.71228984 23.21382903 1.71228984 23.21382903 -0.46875 25.62109375 C-2.125 26.6875 -2.125 26.6875 -5 28 C-4.58814453 27.22076172 -4.58814453 27.22076172 -4.16796875 26.42578125 C-2.71127526 23.40034092 -1.5001942 20.32859382 -0.3125 17.1875 C0.14511719 16.00542969 0.60273438 14.82335937 1.07421875 13.60546875 C2.35816017 8.60513991 1.61034093 4.83102278 0 0 Z " fill="#4B4B34" transform="translate(171,34)"/>
<path d="M0 0 C0.763125 0.20625 1.52625 0.4125 2.3125 0.625 C2.3125 3.265 2.3125 5.905 2.3125 8.625 C-4.5625 7.75 -4.5625 7.75 -5.6875 6.625 C-5.9375 4.1875 -5.9375 4.1875 -5.6875 1.625 C-2.6875 -0.375 -2.6875 -0.375 0 0 Z " fill="#3C4E5D" transform="translate(151.6875,42.375)"/>
<path d="M0 0 C3.49928164 2.33285443 3.6329098 3.20795069 4.6875 7.125 C4.93886719 8.03507812 5.19023437 8.94515625 5.44921875 9.8828125 C5.72185547 10.93082031 5.72185547 10.93082031 6 12 C6.79792969 12.12246094 7.59585938 12.24492187 8.41796875 12.37109375 C11 13 11 13 12.3125 15.0625 C12.539375 15.701875 12.76625 16.34125 13 17 C13.66 17 14.32 17 15 17 C15.33 17.99 15.66 18.98 16 20 C12.14881487 19.66018955 9.41197937 18.42389645 6.4921875 15.8671875 C3.23738346 11.79442224 0 5.2916109 0 0 Z " fill="#A0664C" transform="translate(159,117)"/>
<path d="M0 0 C0.66 0.66 1.32 1.32 2 2 C1.20078125 2.01417969 0.4015625 2.02835938 -0.421875 2.04296875 C-10.48457153 2.47996379 -18.11904774 5.50728298 -27 10 C-27 9.01 -27 8.02 -27 7 C-26.01 7 -25.02 7 -24 7 C-24 6.34 -24 5.68 -24 5 C-15.93024948 1.2200515 -9.03793787 -0.94378466 0 0 Z " fill="#304869" transform="translate(139,12)"/>
<path d="M0 0 C1.1484375 1.671875 1.1484375 1.671875 2 4 C-0.57664232 11.75400773 -5.99366611 17.67966871 -12 23 C-12.33 22.01 -12.66 21.02 -13 20 C-12.48050781 19.47792969 -11.96101562 18.95585937 -11.42578125 18.41796875 C-6.07105224 12.76630467 -2.81515895 7.24091365 0 0 Z " fill="#1D2B39" transform="translate(194,144)"/>
<path d="M0 0 C4 7.71428571 4 7.71428571 4 12 C4.66 12 5.32 12 6 12 C6.99 14.97 7.98 17.94 9 21 C4.02827213 17.73286454 1.01858053 13.54883347 -1 8 C-1.11168047 5.0623182 -0.68437782 2.89544464 0 0 Z " fill="#49474E" transform="translate(168,82)"/>
<path d="M0 0 C0.99 0.66 1.98 1.32 3 2 C1 4 1 4 -1.1875 4.625 C-4.85559018 6.41828853 -6.7376614 8.96371316 -9.25390625 12.125 C-11.05686592 14.06106407 -12.5796193 14.98312233 -15 16 C-12.97423732 8.57220352 -6.29153135 3.83629961 0 0 Z " fill="#4D7EC6" transform="translate(116,19)"/>
<path d="M0 0 C2.82164809 5.64329618 2.92751398 11.10151881 1 17.125 C0.67 17.74375 0.34 18.3625 0 19 C-4.05606165 18.53199289 -7.46588679 18.12046792 -11 16 C-11 15.34 -11 14.68 -11 14 C-6.05 14.99 -6.05 14.99 -1 16 C-0.67 10.72 -0.34 5.44 0 0 Z " fill="#C15542" transform="translate(186,123)"/>
<path d="M0 0 C0 1.65 0 3.3 0 5 C-0.33 4.34 -0.66 3.68 -1 3 C-4.34019306 3.59646305 -6.50470633 4.68294159 -9 7 C-9 7.99 -9 8.98 -9 10 C-10.65 10.66 -12.3 11.32 -14 12 C-14.33 11.34 -14.66 10.68 -15 10 C-5.30124224 -1.76708075 -5.30124224 -1.76708075 0 0 Z " fill="#D5E7F1" transform="translate(42,116)"/>
<path d="M0 0 C0.66 0.33 1.32 0.66 2 1 C1.34 1.474375 0.68 1.94875 0 2.4375 C-2.89658976 6.14875563 -2.34969446 9.45397207 -2 14 C-1.34 14 -0.68 14 0 14 C0.66 15.98 1.32 17.96 2 20 C-2.22604452 18.49069838 -3.96936766 15.91084747 -6 12 C-6.11467246 6.49572178 -3.56827367 3.84275626 0 0 Z " fill="#504B28" transform="translate(164,62)"/>
<path d="M0 0 C0.33 0.66 0.66 1.32 1 2 C-0.0480957 4.59790039 -0.0480957 4.59790039 -1.67578125 7.84765625 C-2.25650391 9.00974609 -2.83722656 10.17183594 -3.43554688 11.36914062 C-3.74355225 11.9747583 -4.05155762 12.58037598 -4.36889648 13.2043457 C-5.30799268 15.05362414 -6.2319772 16.90988592 -7.15429688 18.76757812 C-11.73780728 27.86890364 -11.73780728 27.86890364 -14 29 C-12.31543592 23.20674304 -10.10898259 18.26232246 -7.0546875 13.06640625 C-5.80965307 10.8940359 -5.80965307 10.8940359 -5.5 7.75 C-4.81207003 3.96638514 -2.83405651 2.47071593 0 0 Z " fill="#687C89" transform="translate(121,52)"/>
<path d="M0 0 C0.93199219 -0.00322266 1.86398438 -0.00644531 2.82421875 -0.00976562 C7.24467466 0.02511602 10.3479133 0.06829759 14.25 2.3125 C11.25 3.3125 11.25 3.3125 8.75 2.875 C1.3889929 1.691981 -5.60524639 1.92157046 -12.77734375 3.97265625 C-15.06428495 4.36664414 -16.53687937 3.92717576 -18.75 3.3125 C-12.30583812 0.44590686 -7.01097351 -0.12325903 0 0 Z " fill="#F6A435" transform="translate(157.75,33.6875)"/>
<path d="M0 0 C3.38891322 0.68886787 6.18011613 1.98716486 9.25 3.5625 C10.14203125 4.01753906 11.0340625 4.47257812 11.953125 4.94140625 C12.96632812 5.46541016 12.96632812 5.46541016 14 6 C12.15625 6.5859375 12.15625 6.5859375 10 7 C7.5 5.625 7.5 5.625 5 4 C2.80869466 3.30420546 2.80869466 3.30420546 1 3 C0.67 4.98 0.34 6.96 0 9 C-0.66 9 -1.32 9 -2 9 C-2.66 10.65 -3.32 12.3 -4 14 C-4.99 14 -5.98 14 -7 14 C-6.66226563 13.49210937 -6.32453125 12.98421875 -5.9765625 12.4609375 C-3.34589186 8.40088512 -1.29585335 4.712194 0 0 Z " fill="#C2914B" transform="translate(179,52)"/>
<path d="M0 0 C1.43410153 3.78819273 0.51009497 6.06521279 -0.9375 9.75 C-1.31777344 10.73484375 -1.69804688 11.7196875 -2.08984375 12.734375 C-2.39019531 13.48203125 -2.69054687 14.2296875 -3 15 C-3.66 15 -4.32 15 -5 15 C-5 19.62 -5 24.24 -5 29 C-5.33 29 -5.66 29 -6 29 C-6.66294247 18.34872433 -5.78899676 10.70360654 -1 1 C-0.67 0.67 -0.34 0.34 0 0 Z " fill="#4B77B8" transform="translate(100,35)"/>
<path d="M0 0 C1.50433594 0.01353516 1.50433594 0.01353516 3.0390625 0.02734375 C3.80992188 0.03894531 4.58078125 0.05054687 5.375 0.0625 C5.375 0.3925 5.375 0.7225 5.375 1.0625 C4.61316406 1.20945312 3.85132812 1.35640625 3.06640625 1.5078125 C-4.35783831 3.12056975 -9.5760453 5.53256531 -15.625 10.0625 C-16.615 10.5575 -16.615 10.5575 -17.625 11.0625 C-17.27496937 8.23155053 -16.85718382 7.25651662 -14.62890625 5.39453125 C-13.42041016 4.64236328 -13.42041016 4.64236328 -12.1875 3.875 C-11.38441406 3.36582031 -10.58132812 2.85664062 -9.75390625 2.33203125 C-6.1883598 0.20578796 -4.16792067 -0.04846419 0 0 Z " fill="#15222D" transform="translate(42.625,104.9375)"/>
<path d="M0 0 C1.32 0 2.64 0 4 0 C4.08121924 1.60332791 4.13929134 3.20784026 4.1875 4.8125 C4.22230469 5.70582031 4.25710937 6.59914062 4.29296875 7.51953125 C3.95081002 10.41647515 3.24606427 11.22555028 1 13 C0.71125 11.88625 0.4225 10.7725 0.125 9.625 C-0.69241329 5.99708908 -0.69241329 5.99708908 -3 4 C-2.01 4 -1.02 4 0 4 C0 2.68 0 1.36 0 0 Z " fill="#3A4F5D" transform="translate(158,140)"/>
<path d="M0 0 C1.32 0.99 2.64 1.98 4 3 C3.34 3 2.68 3 2 3 C2.95545366 4.46022163 3.91446678 5.91811468 4.875 7.375 C5.67550781 8.59316406 5.67550781 8.59316406 6.4921875 9.8359375 C7.95865055 12.07594096 7.95865055 12.07594096 10 14 C9.67 14.99 9.34 15.98 9 17 C4.92881485 13.27777358 1.15075499 9.15157029 -1 4 C-0.6328125 1.75390625 -0.6328125 1.75390625 0 0 Z " fill="#1F2E3A" transform="translate(175,84)"/>
<path d="M0 0 C0.66 0.66 1.32 1.32 2 2 C1.401875 2.70125 0.80375 3.4025 0.1875 4.125 C-2.15797859 6.88123441 -2.15797859 6.88123441 -3.0625 10.25 C-5 13 -5 13 -7.6328125 13.6015625 C-10.43249851 13.85217378 -13.18977859 13.99045765 -16 14 C-14 12 -14 12 -10.75 11.4375 C-7.00304577 10.49684203 -5.70674255 8.61542582 -3.625 5.4375 C-2.7425272 3.96277942 -1.86576815 2.48458901 -1 1 C-0.67 0.67 -0.34 0.34 0 0 Z " fill="#172A3B" transform="translate(54,92)"/>
<path d="M0 0 C-3.52078685 2.01565047 -7.05088764 2.82990674 -11 3.6875 C-12.8253125 4.09548828 -12.8253125 4.09548828 -14.6875 4.51171875 C-17.64433877 4.94757352 -19.25086369 5.02405328 -22 4 C-14.51935975 0.29278005 -8.30085731 -0.51345509 0 0 Z " fill="#4D78B9" transform="translate(140,14)"/>
<path d="M0 0 C0.33 0.99 0.66 1.98 1 3 C-7.72324723 8.80073801 -7.72324723 8.80073801 -13 10 C-15.171875 9.5390625 -15.171875 9.5390625 -17 9 C-16.35933594 8.68546875 -15.71867188 8.3709375 -15.05859375 8.046875 C-9.93906815 5.51381614 -4.92604879 2.89137647 0 0 Z " fill="#0E1F2A" transform="translate(180,165)"/>
<path d="M0 0 C0.66 0.99 1.32 1.98 2 3 C1.34 3 0.68 3 0 3 C0.04125 4.051875 0.0825 5.10375 0.125 6.1875 C0.00852125 9.74010173 -0.47208068 11.84866641 -2 15 C-2.99 14.67 -3.98 14.34 -5 14 C-4.46515599 8.65155992 -2.53309233 4.64203897 0 0 Z " fill="#D4E5ED" transform="translate(59,100)"/>
<path d="M0 0 C0.71484375 1.546875 0.71484375 1.546875 1 4 C-0.05391226 6.53857885 -1.13965574 8.84495527 -2.4375 11.25 C-2.77587891 11.8996875 -3.11425781 12.549375 -3.46289062 13.21875 C-4.29786887 14.81814494 -5.14753114 16.40985859 -6 18 C-6.33 18 -6.66 18 -7 18 C-7.33833293 13.1409633 -6.49919492 10.37861527 -4.0625 6.1875 C-3.51722656 5.23230469 -2.97195312 4.27710938 -2.41015625 3.29296875 C-1 1 -1 1 0 0 Z " fill="#1A2F3C" transform="translate(95,25)"/>
<path d="M0 0 C0.91154493 2.4870547 1.13959195 3.63440203 0.1796875 6.1484375 C-2.55388269 10.81351237 -5.38578666 14.97273371 -9 19 C-9 16 -9 16 -8 13 C-7.34 13 -6.68 13 -6 13 C-6 12.01 -6 11.02 -6 10 C-5.34 10 -4.68 10 -4 10 C-3.67 8.02 -3.34 6.04 -3 4 C-2.34 4 -1.68 4 -1 4 C-0.67 2.68 -0.34 1.36 0 0 Z " fill="#8F6770" transform="translate(133,31)"/>
<path d="M0 0 C0.66 0.33 1.32 0.66 2 1 C-2.0423007 5.28803326 -6.23533374 7.78004491 -12.19140625 8.25390625 C-15.13811328 8.25042726 -18.05891962 8.17646482 -21 8 C-21 7.67 -21 7.34 -21 7 C-19.90300781 6.74605469 -18.80601562 6.49210938 -17.67578125 6.23046875 C-16.22124786 5.88325755 -14.76682658 5.53557642 -13.3125 5.1875 C-12.59126953 5.02185547 -11.87003906 4.85621094 -11.12695312 4.68554688 C-6.88988369 3.66013738 -3.73796167 2.30935294 0 0 Z " fill="#2B534B" transform="translate(174,160)"/>
<path d="M0 0 C0.33 0 0.66 0 1 0 C1.20413361 5.73842251 1.27141454 10.60539047 -1 16 C-2.32 15.34 -3.64 14.68 -5 14 C-4.34 14 -3.68 14 -3 14 C-3 11.36 -3 8.72 -3 6 C-2.34 6 -1.68 6 -1 6 C-0.67 4.02 -0.34 2.04 0 0 Z " fill="#D7E7ED" transform="translate(155,134)"/>
<path d="M0 0 C4.875 3.625 4.875 3.625 6 7 C5.05125 6.814375 4.1025 6.62875 3.125 6.4375 C0.10131207 5.71313368 0.10131207 5.71313368 -2 7 C-2.66 6.34 -3.32 5.68 -4 5 C-2.68 3.35 -1.36 1.7 0 0 Z " fill="#344250" transform="translate(103,115)"/>
<path d="M0 0 C2.62187494 1.04874998 3.79371361 1.64931313 5.25 4.125 C5.4975 4.74375 5.745 5.3625 6 6 C3 8 3 8 0 8 C-1.125 2.25 -1.125 2.25 0 0 Z " fill="#3C4D60" transform="translate(166,18)"/>
<path d="M0 0 C0.99 1.0828125 0.99 1.0828125 2 2.1875 C5.24136533 5.45688866 9.04374711 7.6930039 13 10 C12.67 10.66 12.34 11.32 12 12 C7.26915586 10.56641087 3.15975813 7.80627924 0 4 C0 2.68 0 1.36 0 0 Z " fill="#12202E" transform="translate(22,160)"/>
<path d="M0 0 C2.625 0.375 2.625 0.375 5 1 C5.33 2.65 5.66 4.3 6 6 C4.35 6.33 2.7 6.66 1 7 C0.01 5.35 -0.98 3.7 -2 2 C-1.34 1.34 -0.68 0.68 0 0 Z " fill="#3D4F62" transform="translate(65,84)"/>
<path d="M0 0 C1.33332095 2.6666419 0.67102033 4.16680303 0 7 C0.66 7.33 1.32 7.66 2 8 C2 8.66 2 9.32 2 10 C3.98 10 5.96 10 8 10 C8 10.33 8 10.66 8 11 C0.61538462 11.36923077 0.61538462 11.36923077 -2.5 9.5 C-2.995 9.005 -3.49 8.51 -4 8 C-3.40072174 4.64404172 -2.15377564 2.62198774 0 0 Z " fill="#E59223" transform="translate(175,65)"/>
<path d="M0 0 C1.53202706 0.25195908 3.05257128 0.57596777 4.5625 0.9375 C5.80193359 1.22947266 5.80193359 1.22947266 7.06640625 1.52734375 C7.70449219 1.68332031 8.34257812 1.83929688 9 2 C9 2.99 9 3.98 9 5 C8.01 4.67 7.02 4.34 6 4 C4.66636297 3.85596652 3.32781954 3.75409577 1.98828125 3.68359375 C0.85229492 3.62075195 0.85229492 3.62075195 -0.30664062 3.55664062 C-1.48516602 3.49766602 -1.48516602 3.49766602 -2.6875 3.4375 C-3.48478516 3.39431641 -4.28207031 3.35113281 -5.10351562 3.30664062 C-7.06881447 3.20072632 -9.03438496 3.09987449 -11 3 C-11 2.67 -11 2.34 -11 2 C-10.28972656 1.93941406 -9.57945312 1.87882812 -8.84765625 1.81640625 C-7.46900391 1.69072266 -7.46900391 1.69072266 -6.0625 1.5625 C-5.14597656 1.48128906 -4.22945312 1.40007813 -3.28515625 1.31640625 C-1.03840268 1.23955024 -1.03840268 1.23955024 0 0 Z " fill="#0B1720" transform="translate(212,50)"/>
<path d="M0 0 C0.99 0.33 1.98 0.66 3 1 C2.67 1.66 2.34 2.32 2 3 C1.34 3 0.68 3 0 3 C-0.33 4.65 -0.66 6.3 -1 8 C-1.66 8 -2.32 8 -3 8 C-3.33 8.99 -3.66 9.98 -4 11 C-6.5625 12.1875 -6.5625 12.1875 -9 13 C-8.60167969 12.48050781 -8.20335937 11.96101562 -7.79296875 11.42578125 C-4.97822677 7.72073158 -2.28614026 4.06424935 0 0 Z " fill="#2F534E" transform="translate(185,147)"/>
<path d="M0 0 C0.33 0 0.66 0 1 0 C1.0544452 2.20805524 1.09299283 4.41650554 1.125 6.625 C1.14820313 7.85476562 1.17140625 9.08453125 1.1953125 10.3515625 C1.0030428 13.94316041 0.30258556 16.66661175 -1 20 C-5.875 18.25 -5.875 18.25 -7 16 C-5.35 16.33 -3.7 16.66 -2 17 C-1.34 11.39 -0.68 5.78 0 0 Z " fill="#975D52" transform="translate(188,125)"/>
<path d="M0 0 C1.485 0.99 1.485 0.99 3 2 C3.34057617 4.15478516 3.34057617 4.15478516 3.29296875 6.7890625 C3.28330078 7.73007813 3.27363281 8.67109375 3.26367188 9.640625 C3.23853516 10.62546875 3.21339844 11.6103125 3.1875 12.625 C3.16719727 14.11386719 3.16719727 14.11386719 3.14648438 15.6328125 C3.11105743 18.08908072 3.06166196 20.54427285 3 23 C2.34 23.33 1.68 23.66 1 24 C1.01160156 22.85402344 1.02320313 21.70804688 1.03515625 20.52734375 C1.04454242 18.99739748 1.05364173 17.46744942 1.0625 15.9375 C1.07087891 15.18533203 1.07925781 14.43316406 1.08789062 13.65820312 C1.10808341 8.99366882 0.77595959 4.60076827 0 0 Z " fill="#51434A" transform="translate(187,118)"/>
<path d="M0 0 C2 2 2 2 2.1953125 4.6015625 C2.17210937 5.59929687 2.14890625 6.59703125 2.125 7.625 C2.10695312 8.62789062 2.08890625 9.63078125 2.0703125 10.6640625 C2.03550781 11.82035156 2.03550781 11.82035156 2 13 C1.01 12.67 0.02 12.34 -1 12 C-1.02698189 10.37509046 -1.04638757 8.75005367 -1.0625 7.125 C-1.07410156 6.22007812 -1.08570313 5.31515625 -1.09765625 4.3828125 C-1 2 -1 2 0 0 Z " fill="#EDF8FA" transform="translate(153,128)"/>
<path d="M0 0 C0.33 0.99 0.66 1.98 1 3 C-0.23143527 4.39784545 -1.46562635 5.79343898 -2.71875 7.171875 C-4.9869075 10.40814851 -5.42716028 14.15256905 -6 18 C-6.33 18 -6.66 18 -7 18 C-7.08121924 16.39667209 -7.13929134 14.79215974 -7.1875 13.1875 C-7.22230469 12.29417969 -7.25710937 11.40085937 -7.29296875 10.48046875 C-6.94481573 7.53277317 -6.21656692 6.86570331 -4 5 C-3.649375 4.29875 -3.29875 3.5975 -2.9375 2.875 C-2 1 -2 1 0 0 Z " fill="#E0BA47" transform="translate(164,59)"/>
<path d="M0 0 C0.66 0 1.32 0 2 0 C2 0.66 2 1.32 2 2 C2.61875 1.814375 3.2375 1.62875 3.875 1.4375 C6 1 6 1 8 2 C8 2.66 8 3.32 8 4 C9.32 4 10.64 4 12 4 C12 4.66 12 5.32 12 6 C10.56138706 5.91253716 9.12402492 5.80434652 7.6875 5.6875 C6.88699219 5.62949219 6.08648437 5.57148437 5.26171875 5.51171875 C2.60933741 4.91161175 1.63496121 4.14291033 0 2 C0 1.34 0 0.68 0 0 Z " fill="#F0BB2F" transform="translate(123,92)"/>
<path d="M0 0 C0.66 0.66 1.32 1.32 2 2 C1.70241581 4.3381615 1.36760731 6.67182036 1 9 C1.33 9.99 1.66 10.98 2 12 C1.83988879 14.70123106 1.39559392 17.31875231 1 20 C0.67 20 0.34 20 0 20 C-1.70137504 13.40717171 -1.35911051 6.62566373 0 0 Z " fill="#314350" transform="translate(17,130)"/>
<path d="M0 0 C0.33 0.66 0.66 1.32 1 2 C0.09373216 3.2989839 -0.82549537 4.58893167 -1.75 5.875 C-2.51570312 6.95394531 -2.51570312 6.95394531 -3.296875 8.0546875 C-5.07503547 10.08570565 -6.52701607 10.97855012 -9 12 C-9 9 -9 9 -6.75 6.5625 C-5.8425 5.716875 -4.935 4.87125 -4 4 C-3.236875 3.236875 -2.47375 2.47375 -1.6875 1.6875 C-1.130625 1.130625 -0.57375 0.57375 0 0 Z " fill="#1F303F" transform="translate(223,67)"/>
<path d="M0 0 C4.95 0.99 4.95 0.99 10 2 C10.33 3.98 10.66 5.96 11 8 C6.99698968 6.23867546 3.3971023 3.73867517 0 1 C0 0.67 0 0.34 0 0 Z " fill="#54464E" transform="translate(155,18)"/>
<path d="M0 0 C0.99 0.33 1.98 0.66 3 1 C2.67 5.29 2.34 9.58 2 14 C1.34 14 0.68 14 0 14 C0 9.38 0 4.76 0 0 Z " fill="#4F8C5E" transform="translate(164,131)"/>
<path d="M0 0 C0.33 0 0.66 0 1 0 C1.22527296 3.45745022 1.42733544 6.91587025 1.625 10.375 C1.68945312 11.35984375 1.75390625 12.3446875 1.8203125 13.359375 C1.871875 14.30039063 1.9234375 15.24140625 1.9765625 16.2109375 C2.02893066 17.08024902 2.08129883 17.94956055 2.13525391 18.84521484 C2 21 2 21 0 23 C-0.93959624 17.70346121 -0.98841115 12.91331483 -0.5625 7.5625 C-0.51029297 6.83095703 -0.45808594 6.09941406 -0.40429688 5.34570312 C-0.27615124 3.56331378 -0.1390184 1.7815743 0 0 Z " fill="#293A48" transform="translate(87,50)"/>
<path d="M0 0 C0.99 0.33 1.98 0.66 3 1 C3.6875 4.3125 3.6875 4.3125 4 8 C3.01 8.99 2.02 9.98 1 11 C0.67 7.37 0.34 3.74 0 0 Z " fill="#DEB848" transform="translate(170,36)"/>
<path d="M0 0 C3.40959803 0.60169377 3.90651777 0.88574394 6.25 3.75 C7.97671748 6.95676103 8.4171331 8.45436862 8 12 C5.00027651 8.21087559 2.52489191 4.11168168 0 0 Z " fill="#1E2F3A" transform="translate(185,102)"/>
<path d="M0 0 C1.32 0.33 2.64 0.66 4 1 C4 4.51716303 3.17554415 5.37121748 1 8 C0.01 7.67 -0.98 7.34 -2 7 C-1.34 4.69 -0.68 2.38 0 0 Z " fill="#364756" transform="translate(183,100)"/>
<path d="M0 0 C1.8133922 3.20010388 2.52213974 6.13283843 3.125 9.75 C3.29257813 10.73484375 3.46015625 11.7196875 3.6328125 12.734375 C3.81457031 13.85585937 3.81457031 13.85585937 4 15 C-0.00304878 11.07393293 -0.00304878 11.07393293 -1 8 C-0.86384919 5.27174732 -0.45066966 2.70401794 0 0 Z " fill="#494837" transform="translate(168,82)"/>
<path d="M0 0 C0.66 0 1.32 0 2 0 C2.309375 1.423125 2.309375 1.423125 2.625 2.875 C3.70833333 6.29166667 3.70833333 6.29166667 7.125 7.375 C8.07375 7.58125 9.0225 7.7875 10 8 C6.06329512 9.31223496 3.87511856 8.24296256 0 7 C0 4.69 0 2.38 0 0 Z " fill="#474C4F" transform="translate(165,70)"/>
<path d="M0 0 C1.875 0.25 1.875 0.25 4 1 C5.25 3.0625 5.25 3.0625 6 5 C4.68 5.99 3.36 6.98 2 8 C0 2.25 0 2.25 0 0 Z " fill="#3F4F62" transform="translate(28,114)"/>
<path d="M0 0 C0.33 0 0.66 0 1 0 C1.66 3.96 2.32 7.92 3 12 C1.68 11.34 0.36 10.68 -1 10 C-1.02689216 8.52093108 -1.04634621 7.04172517 -1.0625 5.5625 C-1.07410156 4.73878906 -1.08570313 3.91507813 -1.09765625 3.06640625 C-1 1 -1 1 0 0 Z " fill="#E9BE2F" transform="translate(142,43)"/>
<path d="M0 0 C0.85178626 2.38500154 1.09806909 3.6665651 0.375 6.125 C-1.41247034 8.56245955 -3.1632534 9.10418528 -6 10 C-5.1875 7.5625 -5.1875 7.5625 -4 5 C-3.01 4.67 -2.02 4.34 -1 4 C-0.26676204 1.98491642 -0.26676204 1.98491642 0 0 Z " fill="#BC575B" transform="translate(140,21)"/>
<path d="M0 0 C-2.68232661 1.78821774 -5.30288961 3.20142604 -8.1875 4.625 C-9.08855469 5.07101563 -9.98960938 5.51703125 -10.91796875 5.9765625 C-11.94857422 6.48316406 -11.94857422 6.48316406 -13 7 C-13 6.01 -13 5.02 -13 4 C-12.01 4 -11.02 4 -10 4 C-10 3.34 -10 2.68 -10 2 C-6.5980513 -0.09350689 -3.94727588 -0.17942163 0 0 Z " fill="#2E4E76" transform="translate(125,15)"/>
<path d="M0 0 C0.66 0 1.32 0 2 0 C2.69699552 1.45381897 3.38233866 2.91322953 4.0625 4.375 C4.63677734 5.59316406 4.63677734 5.59316406 5.22265625 6.8359375 C5.47917969 7.55007812 5.73570312 8.26421875 6 9 C5.67 9.66 5.34 10.32 5 11 C4.34 9.68 3.68 8.36 3 7 C2.34 7 1.68 7 1 7 C0.67 4.69 0.34 2.38 0 0 Z " fill="#D9B346" transform="translate(165,87)"/>
<path d="M0 0 C0.66 0.33 1.32 0.66 2 1 C1.34 1.66 0.68 2.32 0 3 C0.32041397 5.60280568 0.32041397 5.60280568 1 8 C-0.65 7.67 -2.3 7.34 -4 7 C-4 5.68 -4 4.36 -4 3 C-2 1.25 -2 1.25 0 0 Z " fill="#CD9D51" transform="translate(172,67)"/>
<path d="M0 0 C0.33 0.99 0.66 1.98 1 3 C-0.21484375 4.82421875 -0.21484375 4.82421875 -1.9375 6.6875 C-2.50339844 7.31011719 -3.06929688 7.93273437 -3.65234375 8.57421875 C-4.09707031 9.04472656 -4.54179688 9.51523437 -5 10 C-5.33 9.01 -5.66 8.02 -6 7 C-4.78515625 5.17578125 -4.78515625 5.17578125 -3.0625 3.3125 C-2.49660156 2.68988281 -1.93070312 2.06726563 -1.34765625 1.42578125 C-0.90292969 0.95527344 -0.45820312 0.48476563 0 0 Z " fill="#101D28" transform="translate(102,17)"/>
<path d="M0 0 C4.56958375 1.97322935 7.13463296 3.92236229 10 8 C8.35 7.67 6.7 7.34 5 7 C5 6.34 5 5.68 5 5 C4.34 5 3.68 5 3 5 C1.375 3.625 1.375 3.625 0 2 C0 1.34 0 0.68 0 0 Z " fill="#494930" transform="translate(108,82)"/>
<path d="M0 0 C0.33 0.66 0.66 1.32 1 2 C1.66 2 2.32 2 3 2 C3 3.32 3 4.64 3 6 C-0.26954202 5.43628586 -1.82575883 4.50037734 -4 2 C-2.68 1.34 -1.36 0.68 0 0 Z " fill="#3A4D5D" transform="translate(73,80)"/>
<path d="M0 0 C0.33 0.66 0.66 1.32 1 2 C0.00390625 4.1640625 0.00390625 4.1640625 -1.4375 6.625 C-1.91058594 7.44226562 -2.38367188 8.25953125 -2.87109375 9.1015625 C-3.24363281 9.72804688 -3.61617187 10.35453125 -4 11 C-4.66 10.67 -5.32 10.34 -6 10 C-5.57507874 8.70414084 -5.13454118 7.4133956 -4.6875 6.125 C-4.44386719 5.40570313 -4.20023438 4.68640625 -3.94921875 3.9453125 C-3 2 -3 2 0 0 Z " fill="#CE4D3E" transform="translate(137,29)"/>
<path d="M0 0 C2.53541298 0.09086451 5.03554784 0.2370945 7.5625 0.4375 C8.62887695 0.51581055 8.62887695 0.51581055 9.71679688 0.59570312 C11.47821999 0.72574107 13.23916173 0.86226897 15 1 C15 1.33 15 1.66 15 2 C13.08496326 2.22281874 11.16783494 2.42771076 9.25 2.625 C8.18265625 2.74101563 7.1153125 2.85703125 6.015625 2.9765625 C2.96207601 3.00029475 1.53837579 2.61420985 -1 1 C-0.67 0.67 -0.34 0.34 0 0 Z " fill="#23353F" transform="translate(196,50)"/>
<path d="M0 0 C0.66 0 1.32 0 2 0 C2.06058594 0.60328125 2.12117187 1.2065625 2.18359375 1.828125 C2.26738281 2.62734375 2.35117188 3.4265625 2.4375 4.25 C2.55931641 5.43335937 2.55931641 5.43335937 2.68359375 6.640625 C2.97634993 8.82364639 3.42064419 10.8773182 4 13 C3.01 13 2.02 13 1 13 C0.83222817 11.20843648 0.66581706 9.4167455 0.5 7.625 C0.4071875 6.62726563 0.314375 5.62953125 0.21875 4.6015625 C0 2 0 2 0 0 Z " fill="#EDBC20" transform="translate(163,83)"/>
<path d="M0 0 C0.88336837 2.4667645 1.1312406 3.63859372 0.22265625 6.140625 C-0.16019531 6.83671875 -0.54304688 7.5328125 -0.9375 8.25 C-1.31777344 8.95640625 -1.69804688 9.6628125 -2.08984375 10.390625 C-2.39019531 10.92171875 -2.69054687 11.4528125 -3 12 C-3.66 12 -4.32 12 -5 12 C-4.67 10.02 -4.34 8.04 -4 6 C-3.34 6 -2.68 6 -2 6 C-1.34 4.02 -0.68 2.04 0 0 Z " fill="#E8BA2C" transform="translate(119,62)"/>
<path d="M0 0 C0.33 0.66 0.66 1.32 1 2 C0.22265625 3.9453125 0.22265625 3.9453125 -0.9375 6.125 C-1.31777344 6.84945312 -1.69804688 7.57390625 -2.08984375 8.3203125 C-2.39019531 8.87460937 -2.69054687 9.42890625 -3 10 C-3.66 10 -4.32 10 -5 10 C-5.3125 7.8125 -5.3125 7.8125 -5 5 C-2.5 2.1875 -2.5 2.1875 0 0 Z " fill="#5D799C" transform="translate(121,52)"/>
<path d="M0 0 C0.66 0 1.32 0 2 0 C2 0.66 2 1.32 2 2 C2.8971875 2.1546875 2.8971875 2.1546875 3.8125 2.3125 C6.28243264 3.08876455 7.32251235 4.07088921 9 6 C3.50847458 5.38983051 3.50847458 5.38983051 1.125 3.5625 C0 2 0 2 0 0 Z " fill="#66884D" transform="translate(173,137)"/>
<path d="M0 0 C0.763125 0.309375 1.52625 0.61875 2.3125 0.9375 C4.18789677 1.67893593 6.08684652 2.36228217 8 3 C7.34 4.32 6.68 5.64 6 7 C4.02 4.69 2.04 2.38 0 0 Z " fill="#344553" transform="translate(144,113)"/>
<path d="M0 0 C4.29 0 8.58 0 13 0 C13 1.32 13 2.64 13 4 C12.67 3.34 12.34 2.68 12 2 C9.1840151 1.53101037 9.1840151 1.53101037 5.9375 1.375 C4.28041016 1.26285156 4.28041016 1.26285156 2.58984375 1.1484375 C1.73519531 1.09945312 0.88054687 1.05046875 0 1 C0 0.67 0 0.34 0 0 Z " fill="#F0FAFC" transform="translate(83,86)"/>
<path d="M0 0 C0.33 0.99 0.66 1.98 1 3 C-3.625 6 -3.625 6 -7 6 C-7 5.34 -7 4.68 -7 4 C-4.69 2.68 -2.38 1.36 0 0 Z " fill="#142933" transform="translate(213,77)"/>
<path d="M0 0 C0.763125 0.20625 1.52625 0.4125 2.3125 0.625 C2.3125 1.615 2.3125 2.605 2.3125 3.625 C1.6525 3.625 0.9925 3.625 0.3125 3.625 C0.3125 2.965 0.3125 2.305 0.3125 1.625 C-0.3475 1.625 -1.0075 1.625 -1.6875 1.625 C-1.6875 2.285 -1.6875 2.945 -1.6875 3.625 C-3.0075 2.965 -4.3275 2.305 -5.6875 1.625 C-2.6875 -0.375 -2.6875 -0.375 0 0 Z " fill="#3C464B" transform="translate(151.6875,42.375)"/>
<path d="M0 0 C2.17854707 3.2678206 3.49760034 6.38058265 5 10 C3.0625 9.625 3.0625 9.625 1 9 C-0.4783226 6.04335481 -0.06032783 3.25770263 0 0 Z " fill="#223746" transform="translate(182,35)"/>
<path d="M0 0 C1.9375 0.8125 1.9375 0.8125 4 2 C4.33 2.99 4.66 3.98 5 5 C5.66 5 6.32 5 7 5 C7.33 5.99 7.66 6.98 8 8 C4.20645982 6.50968064 2.3521464 4.27620391 0 1 C0 0.67 0 0.34 0 0 Z " fill="#BC5B3B" transform="translate(167,129)"/>
<path d="M0 0 C2.31 0.66 4.62 1.32 7 2 C7 2.99 7 3.98 7 5 C4.69 4.67 2.38 4.34 0 4 C0 2.68 0 1.36 0 0 Z " fill="#345172" transform="translate(99,78)"/>
<path d="M0 0 C0.33 0.66 0.66 1.32 1 2 C1.66 2 2.32 2 3 2 C3.66 3.98 4.32 5.96 5 8 C1.125 6.125 1.125 6.125 0 5 C-0.04063832 3.33382885 -0.042721 1.66611905 0 0 Z " fill="#494B41" transform="translate(161,74)"/>
<path d="M0 0 C0 0.99 0 1.98 0 3 C-2.81534937 5.65894107 -5.12793601 7.42636089 -9 8 C-6.14723863 5.06799526 -3.34920216 2.35684596 0 0 Z " fill="#D29D4C" transform="translate(212,66)"/>
<path d="M0 0 C0.66 0.33 1.32 0.66 2 1 C-0.24529435 4.36794152 -1.31592186 4.71057265 -5 6 C-5.99 6.495 -5.99 6.495 -7 7 C-5.55609075 3.19333016 -3.65047197 1.73397418 0 0 Z " fill="#F9AA2D" transform="translate(137,38)"/>
<path d="M0 0 C0.99 0.33 1.98 0.66 3 1 C1.68 2.65 0.36 4.3 -1 6 C-1.99 5.67 -2.98 5.34 -4 5 C-2.68 3.35 -1.36 1.7 0 0 Z " fill="#2E3F4C" transform="translate(89,134)"/>
</svg>
